<?xml version="1.0" encoding="UTF-8"?>
<svg xmlns="http://www.w3.org/2000/svg" xmlns:xlink="http://www.w3.org/1999/xlink" width="12px" height="3px" viewBox="0 0 12 3" version="1.1">
<g id="surface1">
<path style=" stroke:none;fill-rule:nonzero;fill:rgb(97.647059%,80.392158%,22.745098%);fill-opacity:1;" d="M 10.984375 0.683594 C 11.195312 0.835938 11.335938 1.058594 11.382812 1.320312 C 11.421875 1.636719 11.351562 1.894531 11.175781 2.152344 C 11.03125 2.339844 10.816406 2.449219 10.597656 2.5 C 10.265625 2.523438 10.007812 2.457031 9.753906 2.234375 C 9.5625 2.046875 9.457031 1.792969 9.449219 1.523438 C 9.457031 1.234375 9.550781 0.992188 9.75 0.78125 C 10.097656 0.453125 10.585938 0.429688 10.984375 0.683594 Z M 10.066406 0.792969 C 10.058594 0.804688 10.054688 0.816406 10.046875 0.828125 C 10.09375 0.835938 10.09375 0.835938 10.136719 0.847656 C 10.144531 0.890625 10.148438 0.933594 10.15625 0.976562 C 10.121094 0.980469 10.085938 0.988281 10.046875 0.992188 C 10.058594 1.03125 10.058594 1.03125 10.082031 1.066406 C 10.140625 1.09375 10.183594 1.109375 10.246094 1.09375 C 10.3125 1.070312 10.3125 1.070312 10.351562 1.011719 C 10.40625 1 10.40625 1 10.460938 0.992188 C 10.460938 0.980469 10.460938 0.96875 10.460938 0.957031 C 10.472656 0.964844 10.488281 0.972656 10.5 0.976562 C 10.523438 0.984375 10.523438 0.984375 10.550781 0.992188 C 10.566406 0.980469 10.585938 0.96875 10.601562 0.957031 C 10.628906 0.964844 10.628906 0.964844 10.65625 0.976562 C 10.699219 0.992188 10.699219 0.992188 10.746094 0.992188 C 10.78125 0.972656 10.78125 0.972656 10.800781 0.9375 C 10.796875 0.882812 10.785156 0.867188 10.746094 0.828125 C 10.707031 0.824219 10.707031 0.824219 10.660156 0.824219 C 10.640625 0.824219 10.625 0.824219 10.605469 0.820312 C 10.570312 0.820312 10.535156 0.820312 10.496094 0.820312 C 10.363281 0.816406 10.363281 0.816406 10.308594 0.773438 C 10.296875 0.761719 10.289062 0.75 10.28125 0.734375 C 10.183594 0.703125 10.140625 0.726562 10.066406 0.792969 Z M 9.816406 1.492188 C 9.792969 1.503906 9.769531 1.515625 9.746094 1.53125 C 9.6875 1.558594 9.6875 1.558594 9.664062 1.605469 C 9.648438 1.675781 9.652344 1.75 9.652344 1.820312 C 9.664062 1.828125 9.675781 1.835938 9.691406 1.839844 C 9.695312 1.832031 9.703125 1.824219 9.707031 1.8125 C 9.71875 1.796875 9.71875 1.796875 9.730469 1.777344 C 9.738281 1.765625 9.746094 1.753906 9.757812 1.742188 C 9.785156 1.703125 9.804688 1.695312 9.851562 1.6875 C 9.964844 1.683594 9.964844 1.683594 10.019531 1.726562 C 10.046875 1.761719 10.0625 1.800781 10.082031 1.839844 C 10.175781 1.84375 10.265625 1.84375 10.355469 1.84375 C 10.386719 1.847656 10.417969 1.847656 10.449219 1.847656 C 10.492188 1.847656 10.539062 1.847656 10.582031 1.847656 C 10.597656 1.851562 10.609375 1.851562 10.625 1.851562 C 10.667969 1.851562 10.667969 1.851562 10.726562 1.839844 C 10.765625 1.796875 10.78125 1.769531 10.78125 1.710938 C 10.855469 1.6875 10.921875 1.679688 10.996094 1.691406 C 11.050781 1.738281 11.082031 1.78125 11.121094 1.839844 C 11.144531 1.835938 11.167969 1.828125 11.195312 1.820312 C 11.191406 1.730469 11.160156 1.675781 11.101562 1.609375 C 11.027344 1.546875 10.941406 1.53125 10.851562 1.515625 C 10.753906 1.492188 10.675781 1.441406 10.589844 1.386719 C 10.558594 1.367188 10.53125 1.351562 10.5 1.332031 C 10.488281 1.324219 10.476562 1.316406 10.460938 1.304688 C 10.257812 1.210938 9.984375 1.382812 9.816406 1.492188 Z M 9.808594 1.789062 C 9.773438 1.835938 9.773438 1.835938 9.78125 1.890625 C 9.796875 1.9375 9.808594 1.960938 9.851562 1.988281 C 9.894531 2 9.894531 2 9.941406 1.988281 C 9.988281 1.949219 10.007812 1.929688 10.019531 1.867188 C 10.007812 1.808594 9.988281 1.785156 9.941406 1.75 C 9.875 1.734375 9.859375 1.742188 9.808594 1.789062 Z M 10.800781 1.820312 C 10.785156 1.867188 10.785156 1.867188 10.800781 1.914062 C 10.835938 1.960938 10.835938 1.960938 10.890625 1.988281 C 10.945312 1.988281 10.945312 1.988281 10.996094 1.96875 C 11.039062 1.90625 11.042969 1.878906 11.03125 1.804688 C 10.9375 1.726562 10.890625 1.746094 10.800781 1.820312 Z M 10.800781 1.820312 "/>
<path style=" stroke:none;fill-rule:nonzero;fill:rgb(97.647059%,86.666667%,21.960784%);fill-opacity:1;" d="M 10.984375 0.683594 C 11.195312 0.835938 11.335938 1.058594 11.382812 1.320312 C 11.421875 1.636719 11.351562 1.894531 11.175781 2.152344 C 11.101562 2.242188 11.019531 2.3125 10.925781 2.375 C 10.914062 2.375 10.902344 2.375 10.890625 2.375 C 10.890625 2.355469 10.890625 2.335938 10.890625 2.320312 C 10.90625 2.320312 10.925781 2.320312 10.941406 2.320312 C 10.9375 2.28125 10.929688 2.246094 10.925781 2.207031 C 10.953125 2.207031 10.984375 2.207031 11.015625 2.207031 C 11.015625 2.195312 11.015625 2.183594 11.015625 2.171875 C 11.003906 2.171875 10.992188 2.171875 10.980469 2.171875 C 10.972656 2.148438 10.96875 2.125 10.960938 2.097656 C 10.949219 2.097656 10.9375 2.097656 10.925781 2.097656 C 10.914062 2.066406 10.902344 2.039062 10.890625 2.007812 C 10.871094 2.007812 10.855469 2.007812 10.835938 2.007812 C 10.84375 1.980469 10.84375 1.980469 10.855469 1.949219 C 10.871094 1.957031 10.886719 1.960938 10.902344 1.964844 C 10.960938 1.976562 10.960938 1.976562 10.996094 1.949219 C 11.023438 1.898438 11.019531 1.859375 11.015625 1.804688 C 10.945312 1.777344 10.945312 1.777344 10.871094 1.765625 C 10.867188 1.777344 10.859375 1.792969 10.855469 1.804688 C 10.832031 1.792969 10.804688 1.78125 10.78125 1.765625 C 10.78125 1.75 10.78125 1.730469 10.78125 1.710938 C 10.855469 1.664062 10.914062 1.664062 10.996094 1.675781 C 11.0625 1.714844 11.09375 1.75 11.121094 1.820312 C 11.140625 1.820312 11.15625 1.820312 11.175781 1.820312 C 11.171875 1.742188 11.152344 1.6875 11.097656 1.625 C 11.027344 1.566406 10.9375 1.546875 10.851562 1.53125 C 10.753906 1.511719 10.679688 1.460938 10.597656 1.40625 C 10.46875 1.320312 10.386719 1.285156 10.230469 1.3125 C 10.210938 1.320312 10.210938 1.320312 10.191406 1.324219 C 10.191406 1.3125 10.191406 1.300781 10.191406 1.289062 C 10.207031 1.289062 10.226562 1.289062 10.246094 1.289062 C 10.242188 1.261719 10.238281 1.234375 10.238281 1.207031 C 10.234375 1.191406 10.234375 1.179688 10.234375 1.164062 C 10.230469 1.121094 10.230469 1.121094 10.207031 1.085938 C 10.226562 1.082031 10.242188 1.074219 10.261719 1.070312 C 10.320312 1.054688 10.320312 1.054688 10.351562 0.992188 C 10.410156 0.992188 10.410156 0.992188 10.460938 0.992188 C 10.460938 0.980469 10.460938 0.96875 10.460938 0.957031 C 10.472656 0.960938 10.488281 0.964844 10.5 0.96875 C 10.554688 0.980469 10.554688 0.980469 10.601562 0.9375 C 10.621094 0.945312 10.636719 0.949219 10.65625 0.957031 C 10.703125 0.96875 10.703125 0.96875 10.746094 0.976562 C 10.757812 0.964844 10.769531 0.949219 10.78125 0.9375 C 10.773438 0.886719 10.773438 0.886719 10.746094 0.847656 C 10.71875 0.84375 10.6875 0.84375 10.660156 0.839844 C 10.632812 0.839844 10.632812 0.839844 10.605469 0.839844 C 10.585938 0.835938 10.566406 0.835938 10.546875 0.835938 C 10.53125 0.835938 10.511719 0.835938 10.492188 0.832031 C 10.445312 0.832031 10.398438 0.828125 10.351562 0.828125 C 10.347656 0.808594 10.339844 0.792969 10.335938 0.773438 C 10.316406 0.769531 10.316406 0.769531 10.296875 0.765625 C 10.28125 0.765625 10.265625 0.761719 10.25 0.757812 C 10.230469 0.753906 10.214844 0.753906 10.199219 0.75 C 10.152344 0.734375 10.132812 0.722656 10.101562 0.679688 C 10.101562 0.644531 10.101562 0.644531 10.121094 0.605469 C 10.15625 0.585938 10.15625 0.585938 10.191406 0.570312 C 10.191406 0.558594 10.191406 0.546875 10.191406 0.535156 C 10.464844 0.457031 10.75 0.53125 10.984375 0.683594 Z M 10.984375 0.683594 "/>
<path style=" stroke:none;fill-rule:nonzero;fill:rgb(97.647059%,82.352942%,23.137255%);fill-opacity:1;" d="M 4.371094 0.480469 C 4.421875 0.476562 4.472656 0.476562 4.519531 0.476562 C 4.535156 0.476562 4.550781 0.476562 4.566406 0.476562 C 4.601562 0.476562 4.636719 0.476562 4.675781 0.480469 C 4.707031 0.511719 4.695312 0.554688 4.699219 0.597656 C 4.699219 0.621094 4.699219 0.640625 4.699219 0.664062 C 4.703125 0.683594 4.703125 0.707031 4.703125 0.726562 C 4.703125 0.75 4.703125 0.773438 4.703125 0.792969 C 4.707031 0.847656 4.707031 0.902344 4.710938 0.957031 C 4.722656 0.949219 4.738281 0.9375 4.75 0.929688 C 4.855469 0.867188 4.964844 0.878906 5.078125 0.90625 C 5.203125 0.945312 5.277344 1.015625 5.347656 1.128906 C 5.425781 1.289062 5.433594 1.4375 5.433594 1.613281 C 5.429688 1.65625 5.429688 1.699219 5.429688 1.742188 C 5.429688 1.769531 5.429688 1.796875 5.429688 1.820312 C 5.429688 1.839844 5.429688 1.839844 5.429688 1.859375 C 5.429688 1.949219 5.429688 1.949219 5.410156 1.96875 C 5.359375 1.96875 5.308594 1.972656 5.253906 1.96875 C 5.242188 1.96875 5.226562 1.96875 5.210938 1.96875 C 5.175781 1.96875 5.140625 1.96875 5.105469 1.96875 C 5.105469 1.949219 5.101562 1.929688 5.101562 1.910156 C 5.097656 1.839844 5.09375 1.769531 5.089844 1.699219 C 5.089844 1.667969 5.089844 1.636719 5.085938 1.605469 C 5.085938 1.5625 5.082031 1.515625 5.078125 1.472656 C 5.078125 1.460938 5.078125 1.445312 5.078125 1.433594 C 5.074219 1.335938 5.074219 1.335938 5.03125 1.25 C 4.933594 1.203125 4.847656 1.214844 4.746094 1.25 C 4.707031 1.328125 4.703125 1.402344 4.703125 1.484375 C 4.703125 1.5 4.703125 1.511719 4.703125 1.523438 C 4.703125 1.566406 4.699219 1.609375 4.699219 1.652344 C 4.699219 1.695312 4.699219 1.738281 4.699219 1.78125 C 4.695312 1.804688 4.695312 1.832031 4.695312 1.859375 C 4.695312 1.949219 4.695312 1.949219 4.675781 1.96875 C 4.625 1.96875 4.574219 1.972656 4.519531 1.96875 C 4.507812 1.96875 4.492188 1.96875 4.476562 1.96875 C 4.441406 1.96875 4.40625 1.96875 4.371094 1.96875 C 4.339844 1.472656 4.359375 0.976562 4.371094 0.480469 Z M 4.371094 0.480469 "/>
<path style=" stroke:none;fill-rule:nonzero;fill:rgb(97.254902%,86.274511%,22.352941%);fill-opacity:1;" d="M 6.480469 1.035156 C 6.585938 1.171875 6.621094 1.304688 6.628906 1.480469 C 6.636719 1.617188 6.648438 1.742188 6.6875 1.875 C 6.699219 1.914062 6.699219 1.914062 6.699219 1.96875 C 6.59375 1.96875 6.484375 1.96875 6.375 1.96875 C 6.359375 1.933594 6.339844 1.894531 6.324219 1.859375 C 6.3125 1.867188 6.304688 1.871094 6.296875 1.878906 C 6.285156 1.886719 6.273438 1.894531 6.261719 1.902344 C 6.253906 1.910156 6.242188 1.921875 6.230469 1.929688 C 6.136719 1.992188 6.019531 1.980469 5.910156 1.96875 C 5.757812 1.921875 5.664062 1.820312 5.578125 1.6875 C 5.511719 1.5625 5.503906 1.414062 5.539062 1.277344 C 5.597656 1.101562 5.6875 1.007812 5.847656 0.921875 C 6.074219 0.84375 6.292969 0.882812 6.480469 1.035156 Z M 5.894531 1.277344 C 5.851562 1.335938 5.851562 1.398438 5.851562 1.472656 C 5.859375 1.535156 5.890625 1.574219 5.929688 1.621094 C 6.003906 1.667969 6.074219 1.667969 6.160156 1.65625 C 6.226562 1.625 6.246094 1.609375 6.285156 1.546875 C 6.296875 1.457031 6.296875 1.371094 6.265625 1.289062 C 6.21875 1.238281 6.171875 1.21875 6.109375 1.195312 C 6.019531 1.195312 5.964844 1.222656 5.894531 1.277344 Z M 5.894531 1.277344 "/>
<path style=" stroke:none;fill-rule:nonzero;fill:rgb(97.647059%,73.725492%,24.705882%);fill-opacity:1;" d="M 2.203125 0.976562 C 2.378906 1.136719 2.40625 1.292969 2.429688 1.523438 C 2.441406 1.707031 2.441406 1.707031 2.472656 1.882812 C 2.480469 1.917969 2.480469 1.917969 2.488281 1.949219 C 2.472656 1.96875 2.472656 1.96875 2.402344 1.972656 C 2.375 1.972656 2.347656 1.972656 2.316406 1.96875 C 2.304688 1.96875 2.289062 1.96875 2.273438 1.96875 C 2.238281 1.96875 2.203125 1.96875 2.167969 1.96875 C 2.148438 1.925781 2.132812 1.882812 2.113281 1.839844 C 2.101562 1.855469 2.085938 1.871094 2.074219 1.882812 C 1.980469 1.976562 1.886719 1.980469 1.761719 1.976562 C 1.625 1.960938 1.515625 1.886719 1.421875 1.785156 C 1.328125 1.652344 1.292969 1.503906 1.316406 1.34375 C 1.347656 1.171875 1.410156 1.0625 1.554688 0.96875 C 1.753906 0.855469 2.003906 0.851562 2.203125 0.976562 Z M 1.703125 1.25 C 1.648438 1.304688 1.644531 1.359375 1.640625 1.433594 C 1.640625 1.5 1.648438 1.539062 1.691406 1.59375 C 1.761719 1.664062 1.8125 1.660156 1.90625 1.660156 C 1.964844 1.65625 2 1.640625 2.042969 1.601562 C 2.09375 1.519531 2.089844 1.441406 2.078125 1.34375 C 2.050781 1.28125 2.035156 1.25 1.976562 1.214844 C 1.875 1.183594 1.792969 1.203125 1.703125 1.25 Z M 1.703125 1.25 "/>
<path style=" stroke:none;fill-rule:nonzero;fill:rgb(97.254902%,91.37255%,21.568628%);fill-opacity:1;" d="M 8.417969 1.011719 C 8.484375 1.078125 8.492188 1.148438 8.5 1.242188 C 8.496094 1.335938 8.480469 1.402344 8.417969 1.472656 C 8.292969 1.574219 8.132812 1.605469 7.976562 1.597656 C 7.945312 1.59375 7.914062 1.589844 7.878906 1.582031 C 7.960938 1.636719 8.027344 1.640625 8.117188 1.636719 C 8.144531 1.632812 8.144531 1.632812 8.171875 1.632812 C 8.199219 1.632812 8.199219 1.632812 8.226562 1.628906 C 8.246094 1.628906 8.261719 1.628906 8.28125 1.628906 C 8.328125 1.625 8.371094 1.621094 8.417969 1.621094 C 8.417969 1.722656 8.417969 1.824219 8.417969 1.933594 C 8.195312 1.988281 7.925781 2.019531 7.71875 1.894531 C 7.609375 1.820312 7.539062 1.734375 7.503906 1.601562 C 7.472656 1.441406 7.480469 1.28125 7.5625 1.136719 C 7.660156 0.992188 7.777344 0.925781 7.941406 0.886719 C 8.121094 0.875 8.265625 0.90625 8.417969 1.011719 Z M 7.898438 1.25 C 7.878906 1.277344 7.878906 1.277344 7.863281 1.308594 C 7.949219 1.324219 8.027344 1.328125 8.113281 1.324219 C 8.132812 1.3125 8.148438 1.300781 8.167969 1.289062 C 8.160156 1.269531 8.15625 1.25 8.148438 1.234375 C 8.070312 1.191406 7.976562 1.207031 7.898438 1.25 Z M 7.898438 1.25 "/>
<path style=" stroke:none;fill-rule:nonzero;fill:rgb(97.647059%,80.000001%,23.137255%);fill-opacity:1;" d="M 3.886719 0.890625 C 3.90625 0.890625 3.90625 0.890625 3.925781 0.890625 C 3.941406 0.890625 3.953125 0.894531 3.96875 0.894531 C 3.980469 0.894531 3.992188 0.894531 4.003906 0.894531 C 4.066406 0.90625 4.128906 0.921875 4.191406 0.9375 C 4.191406 1.042969 4.191406 1.144531 4.191406 1.25 C 4.167969 1.25 4.144531 1.246094 4.121094 1.242188 C 4.027344 1.230469 3.929688 1.226562 3.832031 1.222656 C 3.804688 1.222656 3.804688 1.222656 3.78125 1.21875 C 3.738281 1.21875 3.695312 1.214844 3.652344 1.214844 C 3.652344 1.226562 3.652344 1.238281 3.652344 1.25 C 3.675781 1.253906 3.675781 1.253906 3.699219 1.257812 C 4.074219 1.304688 4.074219 1.304688 4.183594 1.421875 C 4.238281 1.496094 4.25 1.566406 4.246094 1.65625 C 4.230469 1.746094 4.203125 1.808594 4.144531 1.875 C 4 1.96875 3.863281 1.976562 3.699219 1.976562 C 3.667969 1.976562 3.667969 1.976562 3.636719 1.976562 C 3.371094 1.972656 3.371094 1.972656 3.3125 1.914062 C 3.3125 1.867188 3.3125 1.820312 3.3125 1.773438 C 3.3125 1.761719 3.3125 1.75 3.3125 1.734375 C 3.3125 1.703125 3.3125 1.671875 3.3125 1.636719 C 3.371094 1.617188 3.414062 1.621094 3.472656 1.632812 C 3.554688 1.644531 3.640625 1.644531 3.722656 1.648438 C 3.742188 1.648438 3.761719 1.648438 3.78125 1.652344 C 3.828125 1.652344 3.875 1.65625 3.921875 1.65625 C 3.921875 1.644531 3.921875 1.632812 3.921875 1.621094 C 3.910156 1.617188 3.898438 1.617188 3.882812 1.613281 C 3.515625 1.558594 3.515625 1.558594 3.386719 1.4375 C 3.332031 1.351562 3.316406 1.277344 3.332031 1.179688 C 3.371094 1.054688 3.425781 0.984375 3.535156 0.925781 C 3.652344 0.882812 3.761719 0.882812 3.886719 0.890625 Z M 3.886719 0.890625 "/>
<path style=" stroke:none;fill-rule:nonzero;fill:rgb(97.254902%,72.549021%,24.705882%);fill-opacity:1;" d="M 11.375 0.515625 C 11.417969 0.480469 11.417969 0.480469 11.460938 0.441406 C 11.488281 0.5 11.484375 0.558594 11.480469 0.617188 C 11.480469 0.632812 11.480469 0.644531 11.480469 0.660156 C 11.480469 0.691406 11.480469 0.722656 11.480469 0.753906 C 11.417969 0.777344 11.367188 0.773438 11.296875 0.773438 C 11.273438 0.773438 11.253906 0.773438 11.230469 0.773438 C 11.203125 0.773438 11.203125 0.773438 11.175781 0.773438 C 11.175781 0.714844 11.1875 0.691406 11.210938 0.644531 C 10.984375 0.4375 10.699219 0.3125 10.394531 0.328125 C 10.378906 0.328125 10.367188 0.328125 10.351562 0.332031 C 10.335938 0.332031 10.316406 0.335938 10.300781 0.335938 C 9.988281 0.375 9.726562 0.519531 9.527344 0.761719 C 9.339844 1.015625 9.246094 1.320312 9.285156 1.636719 C 9.296875 1.71875 9.308594 1.796875 9.335938 1.875 C 9.351562 1.9375 9.355469 1.96875 9.332031 2.023438 C 9.292969 2.054688 9.269531 2.0625 9.222656 2.0625 C 9.1875 2.042969 9.1875 2.042969 9.160156 1.988281 C 9.152344 1.964844 9.148438 1.941406 9.140625 1.914062 C 9.132812 1.894531 9.132812 1.894531 9.128906 1.875 C 9.035156 1.53125 9.078125 1.164062 9.242188 0.847656 C 9.453125 0.480469 9.746094 0.277344 10.136719 0.15625 C 10.605469 0.0625 11.011719 0.210938 11.375 0.515625 Z M 11.375 0.515625 "/>
<path style=" stroke:none;fill-rule:nonzero;fill:rgb(96.862745%,86.274511%,23.529412%);fill-opacity:1;" d="M 11.625 0.9375 C 11.675781 0.964844 11.675781 0.996094 11.695312 1.054688 C 11.808594 1.417969 11.789062 1.773438 11.625 2.117188 C 11.617188 2.128906 11.613281 2.140625 11.605469 2.152344 C 11.597656 2.167969 11.59375 2.183594 11.585938 2.195312 C 11.414062 2.511719 11.125 2.738281 10.789062 2.84375 C 10.410156 2.9375 10.0625 2.882812 9.722656 2.683594 C 9.648438 2.636719 9.578125 2.582031 9.511719 2.519531 C 9.5 2.527344 9.488281 2.53125 9.476562 2.539062 C 9.4375 2.558594 9.4375 2.558594 9.386719 2.578125 C 9.382812 2.523438 9.382812 2.472656 9.382812 2.421875 C 9.382812 2.40625 9.382812 2.390625 9.382812 2.375 C 9.382812 2.339844 9.382812 2.300781 9.386719 2.265625 C 9.402344 2.246094 9.402344 2.246094 9.46875 2.242188 C 9.492188 2.242188 9.519531 2.242188 9.546875 2.246094 C 9.5625 2.246094 9.574219 2.246094 9.589844 2.246094 C 9.621094 2.246094 9.65625 2.246094 9.691406 2.246094 C 9.679688 2.300781 9.667969 2.324219 9.636719 2.375 C 9.925781 2.609375 10.222656 2.714844 10.59375 2.675781 C 10.894531 2.628906 11.136719 2.480469 11.335938 2.242188 C 11.523438 1.980469 11.59375 1.683594 11.570312 1.363281 C 11.558594 1.296875 11.546875 1.238281 11.53125 1.175781 C 11.515625 1.113281 11.503906 1.054688 11.5 0.992188 C 11.539062 0.972656 11.582031 0.957031 11.625 0.9375 Z M 11.625 0.9375 "/>
<path style=" stroke:none;fill-rule:nonzero;fill:rgb(97.647059%,70.980394%,25.098041%);fill-opacity:1;" d="M 1.199219 0.9375 C 1.222656 1.003906 1.21875 1.058594 1.21875 1.125 C 1.21875 1.148438 1.21875 1.171875 1.21875 1.195312 C 1.21875 1.214844 1.21875 1.234375 1.21875 1.25 C 1.164062 1.269531 1.164062 1.269531 1.101562 1.253906 C 0.992188 1.222656 0.863281 1.207031 0.757812 1.257812 C 0.699219 1.304688 0.683594 1.34375 0.664062 1.417969 C 0.667969 1.484375 0.683594 1.542969 0.722656 1.601562 C 0.832031 1.671875 0.992188 1.640625 1.113281 1.617188 C 1.128906 1.613281 1.144531 1.609375 1.160156 1.609375 C 1.175781 1.605469 1.1875 1.601562 1.199219 1.601562 C 1.207031 1.605469 1.210938 1.613281 1.21875 1.621094 C 1.214844 1.671875 1.214844 1.722656 1.210938 1.777344 C 1.210938 1.792969 1.207031 1.808594 1.207031 1.820312 C 1.203125 1.859375 1.203125 1.894531 1.199219 1.933594 C 1.011719 2.003906 0.800781 2.015625 0.617188 1.929688 C 0.476562 1.851562 0.390625 1.753906 0.34375 1.601562 C 0.300781 1.433594 0.332031 1.296875 0.394531 1.140625 C 0.476562 1.003906 0.59375 0.933594 0.746094 0.894531 C 0.882812 0.871094 1.074219 0.867188 1.199219 0.9375 Z M 1.199219 0.9375 "/>
<path style=" stroke:none;fill-rule:nonzero;fill:rgb(97.647059%,73.333335%,24.313726%);fill-opacity:1;" d="M 10.191406 0.570312 C 10.167969 0.59375 10.144531 0.621094 10.121094 0.644531 C 10.132812 0.675781 10.144531 0.703125 10.15625 0.734375 C 10.125 0.761719 10.097656 0.785156 10.066406 0.808594 C 10.082031 0.8125 10.09375 0.820312 10.109375 0.824219 C 10.15625 0.847656 10.15625 0.847656 10.171875 0.882812 C 10.171875 0.921875 10.171875 0.921875 10.15625 0.976562 C 10.109375 0.996094 10.109375 0.996094 10.066406 1.011719 C 10.074219 1.039062 10.074219 1.039062 10.082031 1.066406 C 10.117188 1.082031 10.117188 1.082031 10.15625 1.089844 C 10.226562 1.101562 10.226562 1.101562 10.246094 1.121094 C 10.246094 1.152344 10.246094 1.179688 10.246094 1.207031 C 10.246094 1.222656 10.246094 1.238281 10.246094 1.253906 C 10.246094 1.265625 10.246094 1.277344 10.246094 1.289062 C 10.226562 1.289062 10.210938 1.289062 10.191406 1.289062 C 10.191406 1.300781 10.191406 1.3125 10.191406 1.324219 C 10.171875 1.332031 10.171875 1.332031 10.15625 1.335938 C 10.027344 1.378906 9.921875 1.441406 9.808594 1.515625 C 9.761719 1.546875 9.761719 1.546875 9.707031 1.5625 C 9.660156 1.644531 9.667969 1.730469 9.671875 1.820312 C 9.683594 1.828125 9.695312 1.835938 9.707031 1.839844 C 9.710938 1.859375 9.710938 1.859375 9.710938 1.875 C 9.714844 1.890625 9.722656 1.902344 9.726562 1.914062 C 9.777344 1.9375 9.777344 1.9375 9.832031 1.949219 C 9.839844 1.960938 9.839844 1.960938 9.851562 1.96875 C 9.886719 1.96875 9.921875 1.96875 9.957031 1.96875 C 9.957031 1.988281 9.957031 2.003906 9.957031 2.023438 C 9.878906 2.042969 9.878906 2.042969 9.796875 2.0625 C 9.785156 2.042969 9.773438 2.023438 9.761719 2.007812 C 9.734375 2.015625 9.734375 2.015625 9.707031 2.023438 C 9.726562 2.078125 9.742188 2.132812 9.761719 2.191406 C 9.777344 2.191406 9.796875 2.191406 9.816406 2.191406 C 9.820312 2.21875 9.828125 2.25 9.832031 2.28125 C 9.636719 2.175781 9.539062 1.941406 9.46875 1.734375 C 9.410156 1.457031 9.472656 1.175781 9.617188 0.9375 C 9.714844 0.804688 10 0.484375 10.191406 0.570312 Z M 10.191406 0.570312 "/>
<path style=" stroke:none;fill-rule:nonzero;fill:rgb(97.254902%,76.47059%,24.705882%);fill-opacity:1;" d="M 3.257812 0.902344 C 3.257812 1.003906 3.257812 1.109375 3.257812 1.214844 C 3.203125 1.222656 3.144531 1.230469 3.085938 1.234375 C 3.019531 1.253906 2.996094 1.273438 2.957031 1.324219 C 2.929688 1.378906 2.933594 1.433594 2.933594 1.492188 C 2.933594 1.511719 2.933594 1.511719 2.929688 1.53125 C 2.929688 1.589844 2.929688 1.644531 2.925781 1.699219 C 2.925781 1.742188 2.925781 1.78125 2.925781 1.820312 C 2.925781 1.835938 2.925781 1.847656 2.921875 1.859375 C 2.921875 1.949219 2.921875 1.949219 2.902344 1.96875 C 2.851562 1.96875 2.800781 1.972656 2.75 1.96875 C 2.734375 1.96875 2.71875 1.96875 2.703125 1.96875 C 2.667969 1.96875 2.632812 1.96875 2.597656 1.96875 C 2.59375 1.878906 2.59375 1.789062 2.59375 1.695312 C 2.59375 1.664062 2.59375 1.632812 2.589844 1.605469 C 2.585938 1.394531 2.585938 1.214844 2.726562 1.050781 C 2.882812 0.910156 3.058594 0.871094 3.257812 0.902344 Z M 3.257812 0.902344 "/>
<path style=" stroke:none;fill-rule:nonzero;fill:rgb(97.254902%,88.627452%,22.352941%);fill-opacity:1;" d="M 7.46875 0.902344 C 7.46875 1.003906 7.46875 1.109375 7.46875 1.214844 C 7.410156 1.222656 7.351562 1.230469 7.292969 1.234375 C 7.226562 1.253906 7.203125 1.269531 7.164062 1.324219 C 7.148438 1.402344 7.144531 1.480469 7.140625 1.558594 C 7.140625 1.582031 7.140625 1.605469 7.140625 1.628906 C 7.136719 1.675781 7.136719 1.722656 7.136719 1.773438 C 7.132812 1.792969 7.132812 1.816406 7.132812 1.839844 C 7.132812 1.871094 7.132812 1.871094 7.132812 1.902344 C 7.128906 1.949219 7.128906 1.949219 7.109375 1.96875 C 7.058594 1.96875 7.007812 1.972656 6.957031 1.96875 C 6.941406 1.96875 6.929688 1.96875 6.914062 1.96875 C 6.878906 1.96875 6.839844 1.96875 6.804688 1.96875 C 6.804688 1.886719 6.804688 1.800781 6.804688 1.71875 C 6.804688 1.691406 6.804688 1.664062 6.804688 1.632812 C 6.800781 1.390625 6.804688 1.203125 6.976562 1.019531 C 7.117188 0.886719 7.285156 0.878906 7.46875 0.902344 Z M 7.46875 0.902344 "/>
<path style=" stroke:none;fill-rule:nonzero;fill:rgb(97.254902%,84.705883%,21.960784%);fill-opacity:1;" d="M 11.375 0.515625 C 11.402344 0.492188 11.433594 0.464844 11.460938 0.441406 C 11.488281 0.5 11.484375 0.558594 11.480469 0.617188 C 11.480469 0.632812 11.480469 0.644531 11.480469 0.660156 C 11.480469 0.691406 11.480469 0.722656 11.480469 0.753906 C 11.417969 0.777344 11.367188 0.773438 11.296875 0.773438 C 11.273438 0.773438 11.253906 0.773438 11.230469 0.773438 C 11.203125 0.773438 11.203125 0.773438 11.175781 0.773438 C 11.175781 0.714844 11.1875 0.691406 11.210938 0.644531 C 10.980469 0.4375 10.703125 0.316406 10.394531 0.328125 C 10.3125 0.335938 10.234375 0.347656 10.152344 0.363281 C 10.101562 0.367188 10.101562 0.367188 10.066406 0.351562 C 10.066406 0.335938 10.066406 0.324219 10.066406 0.3125 C 10.042969 0.308594 10.019531 0.300781 9.992188 0.292969 C 10.003906 0.242188 10.003906 0.242188 10.03125 0.183594 C 10.515625 0.0234375 10.992188 0.195312 11.375 0.515625 Z M 11.375 0.515625 "/>
<path style=" stroke:none;fill-rule:nonzero;fill:rgb(97.254902%,91.37255%,23.137255%);fill-opacity:1;" d="M 11.625 0.9375 C 11.675781 0.964844 11.675781 0.996094 11.695312 1.054688 C 11.808594 1.421875 11.789062 1.769531 11.625 2.117188 C 11.558594 2.246094 11.488281 2.359375 11.390625 2.464844 C 11.378906 2.441406 11.367188 2.417969 11.355469 2.394531 C 11.378906 2.367188 11.402344 2.34375 11.425781 2.320312 C 11.4375 2.320312 11.449219 2.320312 11.460938 2.320312 C 11.445312 2.289062 11.425781 2.257812 11.410156 2.226562 C 11.363281 2.246094 11.363281 2.246094 11.320312 2.265625 C 11.328125 2.253906 11.335938 2.242188 11.34375 2.230469 C 11.410156 2.125 11.464844 2.023438 11.503906 1.910156 C 11.511719 1.890625 11.511719 1.890625 11.519531 1.871094 C 11.597656 1.644531 11.589844 1.40625 11.53125 1.175781 C 11.515625 1.113281 11.503906 1.054688 11.5 0.992188 C 11.539062 0.972656 11.582031 0.957031 11.625 0.9375 Z M 11.625 0.9375 "/>
<path style=" stroke:none;fill-rule:nonzero;fill:rgb(97.647059%,72.549021%,25.098041%);fill-opacity:1;" d="M 9.46875 2.242188 C 9.492188 2.242188 9.519531 2.242188 9.546875 2.246094 C 9.5625 2.246094 9.574219 2.246094 9.589844 2.246094 C 9.621094 2.246094 9.65625 2.246094 9.691406 2.246094 C 9.679688 2.300781 9.667969 2.324219 9.636719 2.375 C 9.742188 2.453125 9.84375 2.53125 9.957031 2.59375 C 9.941406 2.683594 9.941406 2.683594 9.921875 2.722656 C 9.945312 2.722656 9.96875 2.722656 9.992188 2.722656 C 9.992188 2.734375 9.992188 2.75 9.992188 2.761719 C 10.003906 2.765625 10.019531 2.773438 10.03125 2.777344 C 10.03125 2.792969 10.03125 2.804688 10.03125 2.816406 C 9.832031 2.753906 9.667969 2.65625 9.511719 2.519531 C 9.5 2.527344 9.488281 2.53125 9.476562 2.539062 C 9.4375 2.558594 9.4375 2.558594 9.386719 2.578125 C 9.382812 2.523438 9.382812 2.472656 9.382812 2.421875 C 9.382812 2.40625 9.382812 2.390625 9.382812 2.375 C 9.382812 2.339844 9.382812 2.300781 9.386719 2.265625 C 9.402344 2.246094 9.402344 2.246094 9.46875 2.242188 Z M 9.46875 2.242188 "/>
<path style=" stroke:none;fill-rule:nonzero;fill:rgb(97.647059%,79.607844%,23.137255%);fill-opacity:1;" d="M 9.957031 2.59375 C 9.972656 2.601562 9.988281 2.605469 10.003906 2.609375 C 10.222656 2.679688 10.429688 2.691406 10.65625 2.6875 C 10.65625 2.710938 10.65625 2.734375 10.65625 2.761719 C 10.675781 2.765625 10.691406 2.773438 10.710938 2.777344 C 10.710938 2.792969 10.710938 2.804688 10.710938 2.816406 C 10.699219 2.816406 10.6875 2.816406 10.675781 2.816406 C 10.675781 2.828125 10.675781 2.839844 10.675781 2.851562 C 10.46875 2.917969 10.230469 2.902344 10.03125 2.816406 C 10.03125 2.804688 10.03125 2.792969 10.03125 2.777344 C 10.011719 2.773438 9.996094 2.765625 9.976562 2.761719 C 9.980469 2.75 9.988281 2.738281 9.992188 2.722656 C 9.96875 2.722656 9.945312 2.722656 9.921875 2.722656 C 9.921875 2.699219 9.921875 2.675781 9.921875 2.648438 C 9.933594 2.648438 9.945312 2.648438 9.957031 2.648438 C 9.957031 2.632812 9.957031 2.613281 9.957031 2.59375 Z M 9.957031 2.59375 "/>
<path style=" stroke:none;fill-rule:nonzero;fill:rgb(97.647059%,92.941177%,20%);fill-opacity:1;" d="M 11.070312 0.3125 C 11.136719 0.335938 11.1875 0.367188 11.242188 0.414062 C 11.285156 0.449219 11.328125 0.484375 11.375 0.515625 C 11.402344 0.492188 11.433594 0.464844 11.460938 0.441406 C 11.488281 0.5 11.484375 0.558594 11.480469 0.617188 C 11.480469 0.632812 11.480469 0.644531 11.480469 0.660156 C 11.480469 0.691406 11.480469 0.722656 11.480469 0.753906 C 11.417969 0.777344 11.367188 0.773438 11.296875 0.773438 C 11.273438 0.773438 11.253906 0.773438 11.230469 0.773438 C 11.203125 0.773438 11.203125 0.773438 11.175781 0.773438 C 11.175781 0.714844 11.1875 0.691406 11.210938 0.644531 C 11.203125 0.636719 11.191406 0.628906 11.179688 0.617188 C 11.105469 0.558594 11.035156 0.5 10.960938 0.441406 C 10.984375 0.441406 11.007812 0.441406 11.03125 0.441406 C 11.03125 0.453125 11.03125 0.464844 11.03125 0.480469 C 11.0625 0.480469 11.09375 0.480469 11.121094 0.480469 C 11.128906 0.449219 11.132812 0.417969 11.140625 0.386719 C 11.117188 0.378906 11.09375 0.375 11.070312 0.367188 C 11.070312 0.351562 11.070312 0.332031 11.070312 0.3125 Z M 11.070312 0.3125 "/>
<path style=" stroke:none;fill-rule:nonzero;fill:rgb(97.254902%,77.254903%,23.921569%);fill-opacity:1;" d="M 10.03125 0.222656 C 10.023438 0.246094 10.019531 0.269531 10.011719 0.292969 C 10.03125 0.300781 10.046875 0.304688 10.066406 0.3125 C 10.066406 0.324219 10.066406 0.335938 10.066406 0.351562 C 10.078125 0.355469 10.089844 0.363281 10.101562 0.367188 C 10.066406 0.382812 10.035156 0.398438 10 0.414062 C 9.980469 0.421875 9.964844 0.429688 9.945312 0.441406 C 9.882812 0.460938 9.839844 0.460938 9.777344 0.460938 C 9.761719 0.464844 9.742188 0.472656 9.726562 0.480469 C 9.726562 0.492188 9.726562 0.503906 9.726562 0.515625 C 9.714844 0.515625 9.703125 0.515625 9.691406 0.515625 C 9.691406 0.503906 9.691406 0.492188 9.691406 0.480469 C 9.675781 0.480469 9.664062 0.480469 9.652344 0.480469 C 9.648438 0.449219 9.640625 0.417969 9.636719 0.386719 C 9.675781 0.363281 9.714844 0.339844 9.753906 0.316406 C 9.765625 0.308594 9.777344 0.300781 9.789062 0.292969 C 9.964844 0.1875 9.964844 0.1875 10.03125 0.222656 Z M 10.03125 0.222656 "/>
<path style=" stroke:none;fill-rule:nonzero;fill:rgb(97.254902%,73.333335%,22.745098%);fill-opacity:1;" d="M 10.351562 1.34375 C 10.433594 1.351562 10.5 1.390625 10.570312 1.433594 C 10.582031 1.441406 10.59375 1.449219 10.605469 1.453125 C 10.691406 1.503906 10.691406 1.503906 10.710938 1.546875 C 10.582031 1.566406 10.464844 1.5625 10.335938 1.546875 C 10.332031 1.515625 10.332031 1.484375 10.332031 1.457031 C 10.332031 1.4375 10.332031 1.421875 10.332031 1.402344 C 10.335938 1.363281 10.335938 1.363281 10.351562 1.34375 Z M 10.351562 1.34375 "/>
<path style=" stroke:none;fill-rule:nonzero;fill:rgb(97.254902%,80.784315%,21.568628%);fill-opacity:1;" d="M 10.316406 1.050781 C 10.355469 1.085938 10.371094 1.105469 10.386719 1.160156 C 10.363281 1.164062 10.339844 1.171875 10.316406 1.179688 C 10.324219 1.203125 10.328125 1.226562 10.335938 1.25 C 10.363281 1.257812 10.394531 1.265625 10.425781 1.269531 C 10.425781 1.25 10.425781 1.234375 10.425781 1.214844 C 10.4375 1.214844 10.449219 1.214844 10.460938 1.214844 C 10.464844 1.203125 10.472656 1.191406 10.476562 1.179688 C 10.484375 1.203125 10.488281 1.226562 10.496094 1.25 C 10.507812 1.25 10.519531 1.25 10.53125 1.25 C 10.53125 1.277344 10.53125 1.300781 10.53125 1.324219 C 10.574219 1.335938 10.574219 1.335938 10.621094 1.34375 C 10.621094 1.355469 10.621094 1.367188 10.621094 1.378906 C 10.648438 1.410156 10.648438 1.410156 10.675781 1.4375 C 10.628906 1.417969 10.589844 1.402344 10.550781 1.375 C 10.429688 1.292969 10.332031 1.300781 10.191406 1.324219 C 10.191406 1.3125 10.191406 1.300781 10.191406 1.289062 C 10.207031 1.289062 10.226562 1.289062 10.246094 1.289062 C 10.242188 1.261719 10.238281 1.234375 10.238281 1.207031 C 10.234375 1.183594 10.234375 1.183594 10.234375 1.164062 C 10.230469 1.121094 10.230469 1.121094 10.207031 1.085938 C 10.246094 1.074219 10.28125 1.0625 10.316406 1.050781 Z M 10.316406 1.050781 "/>
<path style=" stroke:none;fill-rule:nonzero;fill:rgb(97.254902%,86.274511%,21.176471%);fill-opacity:1;" d="M 10.296875 1.363281 C 10.296875 1.421875 10.296875 1.484375 10.296875 1.546875 C 10.210938 1.550781 10.121094 1.558594 10.03125 1.5625 C 10.023438 1.550781 10.019531 1.539062 10.011719 1.527344 C 10.070312 1.421875 10.113281 1.382812 10.226562 1.347656 C 10.261719 1.34375 10.261719 1.34375 10.296875 1.363281 Z M 10.296875 1.363281 "/>
<path style=" stroke:none;fill-rule:nonzero;fill:rgb(94.117647%,83.92157%,36.862746%);fill-opacity:1;" d="M 5.390625 1.324219 C 5.402344 1.332031 5.414062 1.335938 5.425781 1.34375 C 5.425781 1.429688 5.425781 1.515625 5.429688 1.601562 C 5.429688 1.632812 5.429688 1.660156 5.429688 1.691406 C 5.429688 1.730469 5.429688 1.773438 5.429688 1.816406 C 5.429688 1.828125 5.429688 1.84375 5.429688 1.855469 C 5.429688 1.886719 5.429688 1.917969 5.425781 1.949219 C 5.410156 1.96875 5.410156 1.96875 5.339844 1.972656 C 5.3125 1.972656 5.285156 1.972656 5.253906 1.96875 C 5.242188 1.96875 5.226562 1.96875 5.210938 1.96875 C 5.175781 1.96875 5.140625 1.96875 5.105469 1.96875 C 5.105469 1.957031 5.105469 1.945312 5.105469 1.933594 C 5.199219 1.933594 5.292969 1.933594 5.390625 1.933594 C 5.390625 1.730469 5.390625 1.53125 5.390625 1.324219 Z M 5.390625 1.324219 "/>
<path style=" stroke:none;fill-rule:nonzero;fill:rgb(95.294118%,75.294119%,32.549021%);fill-opacity:1;" d="M 1.933594 2.257812 C 1.976562 2.261719 2 2.261719 2.042969 2.28125 C 2.070312 2.34375 2.070312 2.402344 2.058594 2.464844 C 2.039062 2.5 2.039062 2.5 2.007812 2.519531 C 1.941406 2.535156 1.941406 2.535156 1.878906 2.539062 C 1.839844 2.476562 1.839844 2.453125 1.839844 2.382812 C 1.839844 2.363281 1.839844 2.34375 1.839844 2.328125 C 1.847656 2.253906 1.855469 2.265625 1.933594 2.257812 Z M 1.917969 2.300781 C 1.894531 2.320312 1.894531 2.320312 1.898438 2.351562 C 1.898438 2.367188 1.898438 2.378906 1.898438 2.394531 C 1.898438 2.417969 1.898438 2.441406 1.898438 2.464844 C 1.929688 2.480469 1.929688 2.480469 1.96875 2.484375 C 2.003906 2.464844 2.003906 2.464844 2.023438 2.429688 C 2.027344 2.382812 2.027344 2.382812 2.007812 2.335938 C 1.960938 2.3125 1.960938 2.3125 1.917969 2.300781 Z M 1.917969 2.300781 "/>
<path style=" stroke:none;fill-rule:nonzero;fill:rgb(97.254902%,78.039217%,27.058825%);fill-opacity:1;" d="M 10.191406 0.570312 C 10.167969 0.59375 10.144531 0.621094 10.121094 0.644531 C 10.132812 0.675781 10.144531 0.703125 10.15625 0.734375 C 10.070312 0.808594 10.070312 0.808594 10.03125 0.808594 C 9.996094 0.746094 9.996094 0.746094 9.957031 0.679688 C 9.933594 0.6875 9.910156 0.691406 9.886719 0.699219 C 9.957031 0.609375 10.078125 0.53125 10.191406 0.570312 Z M 10.191406 0.570312 "/>
<path style=" stroke:none;fill-rule:nonzero;fill:rgb(96.470588%,78.431374%,30.980393%);fill-opacity:1;" d="M 3.726562 2.265625 C 3.738281 2.265625 3.75 2.265625 3.761719 2.265625 C 3.761719 2.292969 3.761719 2.324219 3.761719 2.355469 C 3.796875 2.355469 3.832031 2.355469 3.867188 2.355469 C 3.867188 2.324219 3.867188 2.296875 3.867188 2.265625 C 3.886719 2.269531 3.902344 2.277344 3.921875 2.28125 C 3.921875 2.359375 3.921875 2.441406 3.921875 2.519531 C 3.90625 2.519531 3.886719 2.519531 3.867188 2.519531 C 3.867188 2.484375 3.867188 2.449219 3.867188 2.410156 C 3.859375 2.414062 3.847656 2.417969 3.835938 2.421875 C 3.796875 2.429688 3.796875 2.429688 3.761719 2.410156 C 3.761719 2.453125 3.761719 2.496094 3.761719 2.539062 C 3.75 2.535156 3.738281 2.527344 3.726562 2.519531 C 3.726562 2.4375 3.726562 2.351562 3.726562 2.265625 Z M 3.726562 2.265625 "/>
<path style=" stroke:none;fill-rule:nonzero;fill:rgb(95.686275%,90.588236%,34.901962%);fill-opacity:1;" d="M 6.144531 2.28125 C 6.160156 2.363281 6.160156 2.421875 6.144531 2.503906 C 6.125 2.519531 6.125 2.519531 6.078125 2.523438 C 6.066406 2.523438 6.050781 2.523438 6.035156 2.519531 C 6.015625 2.476562 6.015625 2.476562 6 2.429688 C 6.007812 2.417969 6.011719 2.40625 6.019531 2.394531 C 6.011719 2.375 6.007812 2.355469 6 2.335938 C 6.007812 2.320312 6.011719 2.300781 6.019531 2.28125 C 6.066406 2.257812 6.09375 2.269531 6.144531 2.28125 Z M 6.054688 2.320312 C 6.054688 2.332031 6.054688 2.34375 6.054688 2.355469 C 6.078125 2.363281 6.101562 2.367188 6.125 2.375 C 6.121094 2.355469 6.113281 2.335938 6.109375 2.320312 C 6.089844 2.320312 6.070312 2.320312 6.054688 2.320312 Z M 6.035156 2.410156 C 6.054688 2.4375 6.054688 2.4375 6.070312 2.464844 C 6.082031 2.464844 6.09375 2.464844 6.109375 2.464844 C 6.109375 2.453125 6.109375 2.441406 6.109375 2.429688 C 6.082031 2.421875 6.058594 2.417969 6.035156 2.410156 Z M 6.035156 2.410156 "/>
<path style=" stroke:none;fill-rule:nonzero;fill:rgb(97.254902%,90.588236%,26.666668%);fill-opacity:1;" d="M 11.070312 0.3125 C 11.160156 0.34375 11.226562 0.398438 11.300781 0.460938 C 11.296875 0.484375 11.289062 0.507812 11.285156 0.535156 C 11.273438 0.535156 11.261719 0.535156 11.246094 0.535156 C 11.246094 0.515625 11.246094 0.496094 11.246094 0.480469 C 11.234375 0.480469 11.222656 0.480469 11.210938 0.480469 C 11.210938 0.492188 11.210938 0.503906 11.210938 0.515625 C 11.167969 0.539062 11.167969 0.539062 11.105469 0.550781 C 11.050781 0.527344 11.007812 0.496094 10.960938 0.460938 C 10.984375 0.453125 11.007812 0.449219 11.03125 0.441406 C 11.03125 0.453125 11.03125 0.464844 11.03125 0.480469 C 11.0625 0.480469 11.09375 0.480469 11.121094 0.480469 C 11.128906 0.449219 11.132812 0.417969 11.140625 0.386719 C 11.117188 0.378906 11.09375 0.375 11.070312 0.367188 C 11.070312 0.351562 11.070312 0.332031 11.070312 0.3125 Z M 11.070312 0.3125 "/>
<path style=" stroke:none;fill-rule:nonzero;fill:rgb(96.078432%,83.529413%,22.352941%);fill-opacity:1;" d="M 3.394531 2.261719 C 3.417969 2.261719 3.417969 2.261719 3.4375 2.265625 C 3.476562 2.351562 3.476562 2.410156 3.457031 2.503906 C 3.4375 2.519531 3.4375 2.519531 3.394531 2.523438 C 3.378906 2.523438 3.363281 2.523438 3.347656 2.519531 C 3.332031 2.488281 3.332031 2.488281 3.3125 2.449219 C 3.320312 2.429688 3.324219 2.410156 3.332031 2.394531 C 3.332031 2.375 3.332031 2.355469 3.332031 2.335938 C 3.332031 2.265625 3.332031 2.265625 3.394531 2.261719 Z M 3.386719 2.320312 C 3.390625 2.335938 3.398438 2.355469 3.402344 2.375 C 3.414062 2.367188 3.425781 2.363281 3.4375 2.355469 C 3.433594 2.34375 3.425781 2.332031 3.421875 2.320312 C 3.410156 2.320312 3.398438 2.320312 3.386719 2.320312 Z M 3.347656 2.410156 C 3.355469 2.429688 3.359375 2.449219 3.367188 2.464844 C 3.386719 2.464844 3.402344 2.464844 3.421875 2.464844 C 3.421875 2.453125 3.421875 2.441406 3.421875 2.429688 C 3.398438 2.421875 3.375 2.417969 3.347656 2.410156 Z M 3.347656 2.410156 "/>
<path style=" stroke:none;fill-rule:nonzero;fill:rgb(96.862745%,93.333334%,27.450982%);fill-opacity:1;" d="M 7.433594 2.28125 C 7.433594 2.289062 7.433594 2.292969 7.433594 2.300781 C 7.402344 2.308594 7.375 2.3125 7.34375 2.320312 C 7.34375 2.332031 7.34375 2.34375 7.34375 2.355469 C 7.359375 2.363281 7.378906 2.367188 7.398438 2.375 C 7.398438 2.390625 7.398438 2.410156 7.398438 2.429688 C 7.375 2.429688 7.351562 2.429688 7.324219 2.429688 C 7.324219 2.441406 7.324219 2.453125 7.324219 2.464844 C 7.355469 2.472656 7.382812 2.476562 7.414062 2.484375 C 7.414062 2.496094 7.414062 2.507812 7.414062 2.519531 C 7.375 2.527344 7.332031 2.535156 7.289062 2.539062 C 7.273438 2.519531 7.273438 2.519531 7.269531 2.464844 C 7.269531 2.429688 7.269531 2.429688 7.269531 2.390625 C 7.269531 2.367188 7.269531 2.34375 7.269531 2.320312 C 7.269531 2.300781 7.269531 2.28125 7.273438 2.265625 C 7.328125 2.234375 7.375 2.261719 7.433594 2.28125 Z M 7.433594 2.28125 "/>
<path style=" stroke:none;fill-rule:nonzero;fill:rgb(95.294118%,83.529413%,38.431373%);fill-opacity:1;" d="M 4.621094 2.265625 C 4.664062 2.265625 4.703125 2.265625 4.746094 2.265625 C 4.765625 2.28125 4.765625 2.28125 4.765625 2.335938 C 4.765625 2.394531 4.765625 2.394531 4.746094 2.449219 C 4.753906 2.488281 4.753906 2.488281 4.765625 2.519531 C 4.746094 2.519531 4.730469 2.519531 4.710938 2.519531 C 4.699219 2.507812 4.6875 2.496094 4.675781 2.484375 C 4.667969 2.503906 4.664062 2.519531 4.65625 2.539062 C 4.644531 2.535156 4.632812 2.527344 4.621094 2.519531 C 4.621094 2.4375 4.621094 2.351562 4.621094 2.265625 Z M 4.65625 2.300781 C 4.65625 2.324219 4.65625 2.347656 4.65625 2.375 C 4.679688 2.367188 4.703125 2.363281 4.726562 2.355469 C 4.726562 2.34375 4.726562 2.332031 4.726562 2.320312 C 4.703125 2.3125 4.679688 2.308594 4.65625 2.300781 Z M 4.65625 2.300781 "/>
<path style=" stroke:none;fill-rule:nonzero;fill:rgb(97.647059%,89.803922%,31.764707%);fill-opacity:1;" d="M 5.046875 2.261719 C 5.085938 2.261719 5.121094 2.261719 5.160156 2.265625 C 5.160156 2.277344 5.160156 2.289062 5.160156 2.300781 C 5.128906 2.308594 5.097656 2.3125 5.070312 2.320312 C 5.074219 2.332031 5.082031 2.34375 5.085938 2.355469 C 5.105469 2.363281 5.121094 2.367188 5.140625 2.375 C 5.128906 2.398438 5.117188 2.421875 5.105469 2.449219 C 5.085938 2.441406 5.070312 2.4375 5.050781 2.429688 C 5.050781 2.441406 5.050781 2.453125 5.050781 2.464844 C 5.105469 2.476562 5.105469 2.476562 5.160156 2.484375 C 5.160156 2.496094 5.160156 2.507812 5.160156 2.519531 C 5.097656 2.53125 5.097656 2.53125 5.03125 2.539062 C 4.996094 2.503906 4.996094 2.503906 4.992188 2.453125 C 4.992188 2.433594 4.992188 2.410156 4.992188 2.390625 C 4.992188 2.371094 4.992188 2.351562 4.992188 2.332031 C 5 2.265625 5 2.265625 5.046875 2.261719 Z M 5.046875 2.261719 "/>
<path style=" stroke:none;fill-rule:nonzero;fill:rgb(96.078432%,80.784315%,29.411766%);fill-opacity:1;" d="M 4.246094 2.265625 C 4.289062 2.28125 4.3125 2.292969 4.335938 2.332031 C 4.339844 2.347656 4.34375 2.359375 4.347656 2.371094 C 4.351562 2.382812 4.355469 2.398438 4.359375 2.410156 C 4.371094 2.449219 4.371094 2.449219 4.371094 2.519531 C 4.359375 2.519531 4.347656 2.519531 4.335938 2.519531 C 4.328125 2.507812 4.324219 2.496094 4.316406 2.484375 C 4.261719 2.472656 4.261719 2.472656 4.207031 2.464844 C 4.203125 2.484375 4.195312 2.503906 4.191406 2.519531 C 4.179688 2.519531 4.167969 2.519531 4.15625 2.519531 C 4.167969 2.429688 4.207031 2.347656 4.246094 2.265625 Z M 4.261719 2.355469 C 4.257812 2.375 4.25 2.390625 4.246094 2.410156 C 4.261719 2.40625 4.28125 2.398438 4.296875 2.394531 C 4.285156 2.378906 4.273438 2.367188 4.261719 2.355469 Z M 4.261719 2.355469 "/>
<path style=" stroke:none;fill-rule:nonzero;fill:rgb(96.078432%,71.764708%,29.019609%);fill-opacity:1;" d="M 1.164062 2.265625 C 1.273438 2.265625 1.273438 2.265625 1.308594 2.28125 C 1.308594 2.34375 1.308594 2.390625 1.289062 2.449219 C 1.296875 2.488281 1.296875 2.488281 1.308594 2.519531 C 1.289062 2.519531 1.273438 2.519531 1.253906 2.519531 C 1.242188 2.503906 1.230469 2.484375 1.21875 2.464844 C 1.210938 2.484375 1.207031 2.503906 1.199219 2.519531 C 1.1875 2.519531 1.175781 2.519531 1.164062 2.519531 C 1.164062 2.4375 1.164062 2.351562 1.164062 2.265625 Z M 1.21875 2.300781 C 1.210938 2.324219 1.207031 2.347656 1.199219 2.375 C 1.222656 2.367188 1.246094 2.363281 1.273438 2.355469 C 1.273438 2.34375 1.273438 2.332031 1.273438 2.320312 C 1.253906 2.3125 1.234375 2.308594 1.21875 2.300781 Z M 1.21875 2.300781 "/>
<path style=" stroke:none;fill-rule:nonzero;fill:rgb(95.686275%,88.627452%,33.333334%);fill-opacity:1;" d="M 6.484375 2.265625 C 6.539062 2.28125 6.539062 2.28125 6.558594 2.316406 C 6.5625 2.332031 6.570312 2.347656 6.578125 2.363281 C 6.582031 2.375 6.589844 2.390625 6.59375 2.40625 C 6.609375 2.449219 6.609375 2.449219 6.609375 2.519531 C 6.597656 2.519531 6.585938 2.519531 6.574219 2.519531 C 6.566406 2.507812 6.5625 2.496094 6.554688 2.484375 C 6.5 2.472656 6.5 2.472656 6.449219 2.464844 C 6.441406 2.484375 6.4375 2.503906 6.429688 2.519531 C 6.417969 2.519531 6.40625 2.519531 6.394531 2.519531 C 6.40625 2.460938 6.425781 2.40625 6.449219 2.351562 C 6.457031 2.335938 6.460938 2.320312 6.46875 2.300781 C 6.472656 2.289062 6.476562 2.277344 6.484375 2.265625 Z M 6.5 2.355469 C 6.496094 2.375 6.488281 2.390625 6.484375 2.410156 C 6.5 2.40625 6.519531 2.398438 6.539062 2.394531 C 6.527344 2.378906 6.511719 2.367188 6.5 2.355469 Z M 6.5 2.355469 "/>
<path style=" stroke:none;fill-rule:nonzero;fill:rgb(94.509804%,83.137256%,38.039216%);fill-opacity:1;" d="M 10.316406 0.699219 C 10.324219 0.710938 10.328125 0.722656 10.335938 0.734375 C 10.425781 0.789062 10.527344 0.78125 10.628906 0.78125 C 10.738281 0.785156 10.738281 0.785156 10.792969 0.828125 C 10.800781 0.839844 10.808594 0.851562 10.816406 0.863281 C 10.8125 0.878906 10.804688 0.890625 10.800781 0.902344 C 10.792969 0.894531 10.785156 0.882812 10.777344 0.875 C 10.734375 0.835938 10.710938 0.839844 10.65625 0.835938 C 10.636719 0.835938 10.621094 0.835938 10.601562 0.835938 C 10.582031 0.835938 10.566406 0.835938 10.546875 0.832031 C 10.519531 0.832031 10.519531 0.832031 10.488281 0.832031 C 10.445312 0.832031 10.398438 0.828125 10.351562 0.828125 C 10.347656 0.808594 10.339844 0.792969 10.335938 0.773438 C 10.28125 0.75 10.28125 0.75 10.226562 0.734375 C 10.226562 0.730469 10.226562 0.722656 10.226562 0.71875 C 10.257812 0.710938 10.285156 0.707031 10.316406 0.699219 Z M 10.316406 0.699219 "/>
<path style=" stroke:none;fill-rule:nonzero;fill:rgb(96.078432%,82.745099%,30.588236%);fill-opacity:1;" d="M 2.328125 2.265625 C 2.375 2.265625 2.421875 2.265625 2.472656 2.265625 C 2.472656 2.277344 2.472656 2.289062 2.472656 2.300781 C 2.441406 2.308594 2.414062 2.3125 2.382812 2.320312 C 2.382812 2.332031 2.382812 2.34375 2.382812 2.355469 C 2.40625 2.363281 2.429688 2.367188 2.453125 2.375 C 2.449219 2.390625 2.441406 2.410156 2.4375 2.429688 C 2.417969 2.433594 2.398438 2.441406 2.382812 2.449219 C 2.425781 2.464844 2.425781 2.464844 2.472656 2.484375 C 2.472656 2.496094 2.472656 2.507812 2.472656 2.519531 C 2.429688 2.527344 2.386719 2.535156 2.347656 2.539062 C 2.328125 2.519531 2.328125 2.519531 2.328125 2.464844 C 2.328125 2.429688 2.328125 2.429688 2.328125 2.390625 C 2.328125 2.367188 2.328125 2.34375 2.328125 2.320312 C 2.328125 2.300781 2.328125 2.28125 2.328125 2.265625 Z M 2.328125 2.265625 "/>
<path style=" stroke:none;fill-rule:nonzero;fill:rgb(94.117647%,89.411765%,39.215687%);fill-opacity:1;" d="M 6.839844 2.246094 C 6.890625 2.292969 6.90625 2.347656 6.929688 2.410156 C 6.949219 2.363281 6.96875 2.3125 6.984375 2.265625 C 7.003906 2.265625 7.019531 2.265625 7.039062 2.265625 C 7.03125 2.292969 7.023438 2.320312 7.015625 2.351562 C 7.007812 2.367188 7.003906 2.382812 7 2.402344 C 6.988281 2.445312 6.96875 2.480469 6.949219 2.519531 C 6.894531 2.503906 6.894531 2.503906 6.871094 2.453125 C 6.863281 2.433594 6.855469 2.414062 6.847656 2.390625 C 6.839844 2.371094 6.832031 2.351562 6.824219 2.328125 C 6.816406 2.3125 6.8125 2.296875 6.804688 2.28125 C 6.816406 2.269531 6.828125 2.257812 6.839844 2.246094 Z M 6.839844 2.246094 "/>
<path style=" stroke:none;fill-rule:nonzero;fill:rgb(96.078432%,76.078433%,32.941177%);fill-opacity:1;" d="M 9.527344 0.480469 C 9.535156 0.496094 9.539062 0.515625 9.546875 0.535156 C 9.53125 0.546875 9.515625 0.5625 9.5 0.578125 C 9.449219 0.621094 9.449219 0.621094 9.457031 0.679688 C 9.445312 0.679688 9.433594 0.679688 9.421875 0.679688 C 9.417969 0.691406 9.417969 0.699219 9.417969 0.710938 C 9.398438 0.769531 9.367188 0.816406 9.332031 0.863281 C 9.308594 0.851562 9.285156 0.839844 9.257812 0.828125 C 9.335938 0.699219 9.425781 0.589844 9.527344 0.480469 Z M 9.527344 0.480469 "/>
<path style=" stroke:none;fill-rule:nonzero;fill:rgb(96.862745%,69.411767%,26.274511%);fill-opacity:1;" d="M 9.5625 1.085938 C 9.570312 1.085938 9.574219 1.085938 9.582031 1.085938 C 9.605469 1.203125 9.59375 1.269531 9.546875 1.378906 C 9.535156 1.367188 9.523438 1.355469 9.511719 1.34375 C 9.492188 1.351562 9.492188 1.351562 9.476562 1.363281 C 9.476562 1.335938 9.480469 1.308594 9.480469 1.285156 C 9.484375 1.269531 9.484375 1.253906 9.484375 1.238281 C 9.492188 1.195312 9.507812 1.164062 9.527344 1.121094 C 9.539062 1.121094 9.550781 1.121094 9.5625 1.121094 C 9.5625 1.109375 9.5625 1.097656 9.5625 1.085938 Z M 9.5625 1.085938 "/>
<path style=" stroke:none;fill-rule:nonzero;fill:rgb(96.470588%,80.392158%,21.176471%);fill-opacity:1;" d="M 10.191406 1.378906 C 10.1875 1.394531 10.183594 1.410156 10.179688 1.421875 C 10.167969 1.472656 10.167969 1.472656 10.191406 1.527344 C 10.171875 1.527344 10.15625 1.527344 10.136719 1.527344 C 10.136719 1.539062 10.136719 1.550781 10.136719 1.5625 C 10.101562 1.5625 10.066406 1.5625 10.03125 1.5625 C 10.023438 1.550781 10.019531 1.539062 10.011719 1.527344 C 10.027344 1.507812 10.039062 1.484375 10.054688 1.464844 C 10.0625 1.453125 10.070312 1.441406 10.078125 1.429688 C 10.113281 1.382812 10.132812 1.378906 10.191406 1.378906 Z M 10.191406 1.378906 "/>
<path style=" stroke:none;fill-rule:nonzero;fill:rgb(95.686275%,81.960785%,30.588236%);fill-opacity:1;" d="M 10.460938 1.179688 C 10.472656 1.203125 10.484375 1.226562 10.496094 1.25 C 10.507812 1.25 10.519531 1.25 10.53125 1.25 C 10.53125 1.277344 10.53125 1.300781 10.53125 1.324219 C 10.5625 1.332031 10.589844 1.335938 10.621094 1.34375 C 10.621094 1.355469 10.621094 1.367188 10.621094 1.378906 C 10.648438 1.410156 10.648438 1.410156 10.675781 1.4375 C 10.613281 1.414062 10.5625 1.382812 10.507812 1.351562 C 10.425781 1.304688 10.371094 1.296875 10.28125 1.308594 C 10.28125 1.292969 10.28125 1.28125 10.28125 1.269531 C 10.328125 1.269531 10.375 1.269531 10.425781 1.269531 C 10.425781 1.25 10.425781 1.234375 10.425781 1.214844 C 10.4375 1.214844 10.449219 1.214844 10.460938 1.214844 C 10.460938 1.203125 10.460938 1.191406 10.460938 1.179688 Z M 10.460938 1.179688 "/>
<path style=" stroke:none;fill-rule:nonzero;fill:rgb(96.862745%,85.882354%,20.392157%);fill-opacity:1;" d="M 10.945312 1.800781 C 10.957031 1.808594 10.96875 1.816406 10.980469 1.820312 C 10.980469 1.851562 10.980469 1.882812 10.980469 1.914062 C 10.945312 1.933594 10.945312 1.933594 10.90625 1.949219 C 10.871094 1.917969 10.871094 1.917969 10.835938 1.878906 C 10.835938 1.835938 10.835938 1.835938 10.855469 1.804688 C 10.90625 1.785156 10.90625 1.785156 10.945312 1.800781 Z M 10.945312 1.800781 "/>
<path style=" stroke:none;fill-rule:nonzero;fill:rgb(97.647059%,77.64706%,23.137255%);fill-opacity:1;" d="M 10.101562 1.066406 C 10.144531 1.078125 10.183594 1.089844 10.226562 1.105469 C 10.234375 1.132812 10.238281 1.164062 10.246094 1.195312 C 10.210938 1.203125 10.175781 1.207031 10.136719 1.214844 C 10.125 1.195312 10.113281 1.179688 10.101562 1.160156 C 10.082031 1.167969 10.082031 1.167969 10.066406 1.179688 C 10.078125 1.140625 10.089844 1.105469 10.101562 1.066406 Z M 10.101562 1.066406 "/>
<path style=" stroke:none;fill-rule:nonzero;fill:rgb(97.647059%,90.196079%,19.607843%);fill-opacity:1;" d="M 11.210938 0.480469 C 11.222656 0.480469 11.234375 0.480469 11.246094 0.480469 C 11.246094 0.496094 11.246094 0.515625 11.246094 0.535156 C 11.257812 0.535156 11.269531 0.535156 11.285156 0.535156 C 11.289062 0.515625 11.296875 0.496094 11.300781 0.480469 C 11.308594 0.480469 11.3125 0.480469 11.320312 0.480469 C 11.332031 0.539062 11.332031 0.539062 11.335938 0.605469 C 11.324219 0.621094 11.3125 0.632812 11.300781 0.644531 C 11.285156 0.644531 11.265625 0.644531 11.246094 0.644531 C 11.246094 0.621094 11.246094 0.59375 11.246094 0.570312 C 11.207031 0.566406 11.164062 0.558594 11.121094 0.550781 C 11.132812 0.546875 11.144531 0.539062 11.160156 0.535156 C 11.164062 0.523438 11.171875 0.507812 11.175781 0.496094 C 11.1875 0.503906 11.199219 0.507812 11.210938 0.515625 C 11.210938 0.503906 11.210938 0.492188 11.210938 0.480469 Z M 11.210938 0.480469 "/>
<path style=" stroke:none;fill-rule:nonzero;fill:rgb(95.294118%,73.725492%,33.333334%);fill-opacity:1;" d="M 9.386719 2.265625 C 9.390625 2.265625 9.398438 2.265625 9.402344 2.265625 C 9.410156 2.324219 9.414062 2.386719 9.421875 2.449219 C 9.4375 2.441406 9.457031 2.4375 9.476562 2.429688 C 9.476562 2.417969 9.476562 2.40625 9.476562 2.394531 C 9.492188 2.394531 9.511719 2.394531 9.527344 2.394531 C 9.527344 2.40625 9.527344 2.417969 9.527344 2.429688 C 9.515625 2.429688 9.503906 2.429688 9.492188 2.429688 C 9.488281 2.445312 9.484375 2.464844 9.480469 2.480469 C 9.457031 2.539062 9.457031 2.539062 9.386719 2.578125 C 9.386719 2.472656 9.386719 2.371094 9.386719 2.265625 Z M 9.386719 2.265625 "/>
<path style=" stroke:none;fill-rule:nonzero;fill:rgb(97.254902%,71.372551%,30.588236%);fill-opacity:1;" d="M 9.347656 0.847656 C 9.378906 0.875 9.378906 0.875 9.402344 0.921875 C 9.390625 0.988281 9.390625 0.988281 9.367188 1.050781 C 9.347656 1.058594 9.347656 1.058594 9.332031 1.066406 C 9.332031 1.042969 9.332031 1.019531 9.332031 0.992188 C 9.296875 0.980469 9.261719 0.96875 9.222656 0.957031 C 9.222656 0.976562 9.222656 0.992188 9.222656 1.011719 C 9.210938 1.011719 9.199219 1.011719 9.1875 1.011719 C 9.195312 0.988281 9.199219 0.964844 9.207031 0.9375 C 9.21875 0.9375 9.230469 0.9375 9.242188 0.9375 C 9.242188 0.925781 9.242188 0.914062 9.242188 0.902344 C 9.269531 0.90625 9.300781 0.914062 9.332031 0.921875 C 9.335938 0.894531 9.34375 0.871094 9.347656 0.847656 Z M 9.347656 0.847656 "/>
<path style=" stroke:none;fill-rule:nonzero;fill:rgb(95.294118%,73.725492%,31.764707%);fill-opacity:1;" d="M 9.707031 2.648438 C 9.726562 2.65625 9.746094 2.664062 9.765625 2.667969 C 9.832031 2.691406 9.832031 2.691406 9.886719 2.667969 C 9.890625 2.679688 9.898438 2.691406 9.90625 2.707031 C 9.949219 2.71875 9.949219 2.71875 9.992188 2.722656 C 9.992188 2.734375 9.992188 2.75 9.992188 2.761719 C 10.003906 2.765625 10.019531 2.773438 10.03125 2.777344 C 10.03125 2.792969 10.03125 2.804688 10.03125 2.816406 C 9.914062 2.78125 9.8125 2.734375 9.707031 2.667969 C 9.707031 2.664062 9.707031 2.65625 9.707031 2.648438 Z M 9.707031 2.648438 "/>
<path style=" stroke:none;fill-rule:nonzero;fill:rgb(94.901961%,87.843138%,36.470589%);fill-opacity:1;" d="M 6.429688 1.765625 C 6.425781 1.820312 6.417969 1.875 6.410156 1.933594 C 6.5 1.9375 6.589844 1.945312 6.679688 1.949219 C 6.6875 1.9375 6.691406 1.925781 6.699219 1.914062 C 6.699219 1.933594 6.699219 1.949219 6.699219 1.96875 C 6.59375 1.96875 6.484375 1.96875 6.375 1.96875 C 6.355469 1.90625 6.355469 1.851562 6.359375 1.785156 C 6.394531 1.765625 6.394531 1.765625 6.429688 1.765625 Z M 6.429688 1.765625 "/>
<path style=" stroke:none;fill-rule:nonzero;fill:rgb(96.470588%,82.352942%,28.235295%);fill-opacity:1;" d="M 9.898438 1.800781 C 9.917969 1.804688 9.917969 1.804688 9.941406 1.804688 C 9.953125 1.828125 9.964844 1.851562 9.976562 1.878906 C 9.957031 1.90625 9.957031 1.90625 9.941406 1.933594 C 9.894531 1.9375 9.894531 1.9375 9.851562 1.933594 C 9.832031 1.914062 9.832031 1.914062 9.832031 1.867188 C 9.832031 1.804688 9.835938 1.804688 9.898438 1.800781 Z M 9.898438 1.800781 "/>
<path style=" stroke:none;fill-rule:nonzero;fill:rgb(95.686275%,84.313726%,27.450982%);fill-opacity:1;" d="M 5.765625 1.765625 C 5.796875 1.765625 5.828125 1.765625 5.855469 1.765625 C 5.863281 1.777344 5.867188 1.792969 5.875 1.804688 C 5.855469 1.8125 5.855469 1.8125 5.839844 1.820312 C 5.828125 1.859375 5.828125 1.859375 5.820312 1.894531 C 5.832031 1.894531 5.84375 1.894531 5.855469 1.894531 C 5.855469 1.90625 5.855469 1.921875 5.855469 1.933594 C 5.769531 1.910156 5.730469 1.882812 5.675781 1.804688 C 5.703125 1.804688 5.726562 1.804688 5.75 1.804688 C 5.753906 1.792969 5.761719 1.78125 5.765625 1.765625 Z M 5.765625 1.765625 "/>
<path style=" stroke:none;fill-rule:nonzero;fill:rgb(96.862745%,90.196079%,34.901962%);fill-opacity:1;" d="M 7.128906 1.289062 C 7.144531 1.292969 7.164062 1.300781 7.183594 1.308594 C 7.175781 1.324219 7.171875 1.339844 7.164062 1.355469 C 7.144531 1.421875 7.140625 1.476562 7.140625 1.542969 C 7.136719 1.570312 7.136719 1.59375 7.136719 1.617188 C 7.136719 1.640625 7.136719 1.667969 7.136719 1.691406 C 7.132812 1.714844 7.132812 1.742188 7.132812 1.765625 C 7.132812 1.828125 7.128906 1.890625 7.128906 1.949219 C 7.121094 1.949219 7.117188 1.949219 7.109375 1.949219 C 7.109375 1.859375 7.109375 1.769531 7.109375 1.675781 C 7.109375 1.644531 7.109375 1.613281 7.109375 1.582031 C 7.109375 1.539062 7.109375 1.492188 7.109375 1.449219 C 7.109375 1.433594 7.109375 1.421875 7.109375 1.40625 C 7.109375 1.375 7.109375 1.339844 7.109375 1.308594 C 7.117188 1.300781 7.121094 1.292969 7.128906 1.289062 Z M 7.128906 1.289062 "/>
<path style=" stroke:none;fill-rule:nonzero;fill:rgb(96.470588%,92.941177%,27.058825%);fill-opacity:1;" d="M 11.335938 1.195312 C 11.34375 1.195312 11.347656 1.195312 11.355469 1.195312 C 11.390625 1.339844 11.394531 1.472656 11.390625 1.621094 C 11.386719 1.621094 11.378906 1.621094 11.375 1.621094 C 11.375 1.570312 11.375 1.523438 11.375 1.472656 C 11.347656 1.464844 11.324219 1.460938 11.300781 1.453125 C 11.308594 1.445312 11.3125 1.433594 11.320312 1.425781 C 11.34375 1.367188 11.332031 1.328125 11.320312 1.269531 C 11.328125 1.226562 11.328125 1.226562 11.335938 1.195312 Z M 11.335938 1.195312 "/>
<path style=" stroke:none;fill-rule:nonzero;fill:rgb(97.647059%,90.980393%,25.098041%);fill-opacity:1;" d="M 11.625 0.9375 C 11.636719 0.945312 11.648438 0.949219 11.660156 0.957031 C 11.660156 0.976562 11.660156 0.992188 11.660156 1.011719 C 11.636719 1.011719 11.613281 1.011719 11.589844 1.011719 C 11.578125 1.066406 11.5625 1.121094 11.550781 1.179688 C 11.511719 1.113281 11.507812 1.070312 11.5 0.992188 C 11.539062 0.972656 11.582031 0.957031 11.625 0.9375 Z M 11.625 0.9375 "/>
<path style=" stroke:none;fill-rule:nonzero;fill:rgb(95.294118%,80.784315%,30.588236%);fill-opacity:1;" d="M 4.15625 0.9375 C 4.167969 0.9375 4.179688 0.9375 4.191406 0.9375 C 4.191406 1.042969 4.191406 1.144531 4.191406 1.25 C 4.171875 1.246094 4.15625 1.238281 4.136719 1.234375 C 4.148438 1.234375 4.160156 1.234375 4.171875 1.234375 C 4.171875 1.167969 4.171875 1.097656 4.171875 1.03125 C 4.132812 1.042969 4.089844 1.054688 4.046875 1.066406 C 4.046875 1.042969 4.046875 1.019531 4.046875 0.992188 C 4.0625 0.992188 4.078125 0.988281 4.089844 0.988281 C 4.105469 0.984375 4.121094 0.980469 4.136719 0.976562 C 4.144531 0.964844 4.148438 0.949219 4.15625 0.9375 Z M 4.15625 0.9375 "/>
<path style=" stroke:none;fill-rule:nonzero;fill:rgb(96.078432%,76.47059%,25.882354%);fill-opacity:1;" d="M 10.351562 1.34375 C 10.382812 1.347656 10.414062 1.355469 10.441406 1.363281 C 10.4375 1.378906 10.429688 1.398438 10.425781 1.417969 C 10.40625 1.421875 10.386719 1.429688 10.371094 1.4375 C 10.363281 1.464844 10.359375 1.496094 10.351562 1.527344 C 10.421875 1.527344 10.492188 1.527344 10.566406 1.527344 C 10.566406 1.535156 10.566406 1.539062 10.566406 1.546875 C 10.492188 1.546875 10.414062 1.546875 10.335938 1.546875 C 10.332031 1.402344 10.332031 1.402344 10.335938 1.363281 C 10.339844 1.355469 10.347656 1.351562 10.351562 1.34375 Z M 10.351562 1.34375 "/>
<path style=" stroke:none;fill-rule:nonzero;fill:rgb(96.862745%,82.352942%,26.666668%);fill-opacity:1;" d="M 4.640625 2.28125 C 4.652344 2.289062 4.664062 2.292969 4.675781 2.300781 C 4.667969 2.324219 4.664062 2.347656 4.65625 2.375 C 4.675781 2.378906 4.691406 2.386719 4.710938 2.394531 C 4.710938 2.417969 4.710938 2.441406 4.710938 2.464844 C 4.691406 2.476562 4.691406 2.476562 4.675781 2.484375 C 4.667969 2.503906 4.664062 2.519531 4.65625 2.539062 C 4.644531 2.535156 4.632812 2.527344 4.621094 2.519531 C 4.621094 2.488281 4.621094 2.457031 4.621094 2.421875 C 4.621094 2.402344 4.621094 2.386719 4.621094 2.367188 C 4.621094 2.320312 4.621094 2.320312 4.640625 2.28125 Z M 4.640625 2.28125 "/>
<path style=" stroke:none;fill-rule:nonzero;fill:rgb(94.117647%,73.333335%,37.64706%);fill-opacity:1;" d="M 1.164062 2.265625 C 1.265625 2.261719 1.265625 2.261719 1.308594 2.28125 C 1.308594 2.34375 1.308594 2.390625 1.289062 2.449219 C 1.296875 2.488281 1.296875 2.488281 1.308594 2.519531 C 1.289062 2.519531 1.273438 2.519531 1.253906 2.519531 C 1.226562 2.449219 1.25 2.390625 1.273438 2.320312 C 1.21875 2.308594 1.21875 2.308594 1.164062 2.300781 C 1.164062 2.289062 1.164062 2.277344 1.164062 2.265625 Z M 1.164062 2.265625 "/>
<path style=" stroke:none;fill-rule:nonzero;fill:rgb(97.647059%,74.901962%,21.568628%);fill-opacity:1;" d="M 1.21875 1.621094 C 1.210938 1.667969 1.207031 1.71875 1.199219 1.765625 C 1.195312 1.753906 1.1875 1.742188 1.183594 1.730469 C 1.171875 1.726562 1.160156 1.726562 1.144531 1.722656 C 1.132812 1.71875 1.121094 1.714844 1.109375 1.710938 C 1.105469 1.695312 1.097656 1.675781 1.09375 1.65625 C 1.125 1.59375 1.15625 1.597656 1.21875 1.621094 Z M 1.21875 1.621094 "/>
<path style=" stroke:none;fill-rule:nonzero;fill:rgb(94.117647%,89.019608%,38.431373%);fill-opacity:1;" d="M 6.144531 2.28125 C 6.148438 2.3125 6.15625 2.34375 6.160156 2.375 C 6.144531 2.367188 6.125 2.363281 6.109375 2.355469 C 6.109375 2.34375 6.109375 2.332031 6.109375 2.320312 C 6.089844 2.320312 6.070312 2.320312 6.054688 2.320312 C 6.058594 2.34375 6.066406 2.367188 6.070312 2.394531 C 6.054688 2.394531 6.035156 2.394531 6.019531 2.394531 C 6 2.335938 6 2.335938 6.019531 2.28125 C 6.066406 2.257812 6.09375 2.269531 6.144531 2.28125 Z M 6.144531 2.28125 "/>
<path style=" stroke:none;fill-rule:nonzero;fill:rgb(98.039216%,81.960785%,11.372549%);fill-opacity:1;" d="M 9.402344 2.246094 C 9.496094 2.246094 9.59375 2.246094 9.691406 2.246094 C 9.664062 2.25 9.640625 2.257812 9.617188 2.265625 C 9.613281 2.28125 9.605469 2.300781 9.601562 2.320312 C 9.539062 2.308594 9.480469 2.292969 9.421875 2.28125 C 9.414062 2.292969 9.410156 2.304688 9.402344 2.320312 C 9.402344 2.292969 9.402344 2.269531 9.402344 2.246094 Z M 9.402344 2.246094 "/>
<path style=" stroke:none;fill-rule:nonzero;fill:rgb(94.509804%,73.333335%,32.549021%);fill-opacity:1;" d="M 9.617188 2.042969 C 9.660156 2.042969 9.660156 2.042969 9.707031 2.0625 C 9.738281 2.125 9.738281 2.125 9.761719 2.191406 C 9.777344 2.191406 9.796875 2.191406 9.816406 2.191406 C 9.820312 2.21875 9.828125 2.25 9.832031 2.28125 C 9.738281 2.226562 9.679688 2.15625 9.617188 2.0625 C 9.617188 2.054688 9.617188 2.050781 9.617188 2.042969 Z M 9.617188 2.042969 "/>
<path style=" stroke:none;fill-rule:nonzero;fill:rgb(95.686275%,78.431374%,29.019609%);fill-opacity:1;" d="M 9.921875 1.675781 C 9.988281 1.683594 10.023438 1.714844 10.066406 1.765625 C 10.066406 1.777344 10.066406 1.792969 10.066406 1.804688 C 10.035156 1.816406 10.035156 1.816406 9.992188 1.820312 C 9.949219 1.792969 9.941406 1.769531 9.929688 1.71875 C 9.925781 1.703125 9.925781 1.6875 9.921875 1.675781 Z M 9.921875 1.675781 "/>
<path style=" stroke:none;fill-rule:nonzero;fill:rgb(95.294118%,90.588236%,32.941177%);fill-opacity:1;" d="M 11.121094 0.550781 C 11.164062 0.558594 11.207031 0.5625 11.246094 0.570312 C 11.246094 0.609375 11.246094 0.644531 11.246094 0.683594 C 11.246094 0.71875 11.246094 0.71875 11.265625 0.753906 C 11.234375 0.761719 11.207031 0.765625 11.175781 0.773438 C 11.175781 0.714844 11.1875 0.691406 11.210938 0.644531 C 11.183594 0.613281 11.152344 0.582031 11.121094 0.550781 Z M 11.121094 0.550781 "/>
<path style=" stroke:none;fill-rule:nonzero;fill:rgb(96.470588%,80.392158%,30.588236%);fill-opacity:1;" d="M 10.171875 2.394531 C 10.195312 2.394531 10.21875 2.394531 10.246094 2.394531 C 10.246094 2.40625 10.246094 2.417969 10.246094 2.429688 C 10.269531 2.433594 10.292969 2.441406 10.316406 2.449219 C 10.316406 2.460938 10.316406 2.472656 10.316406 2.484375 C 10.382812 2.484375 10.445312 2.484375 10.511719 2.484375 C 10.511719 2.492188 10.511719 2.496094 10.511719 2.503906 C 10.480469 2.503906 10.445312 2.503906 10.410156 2.503906 C 10.382812 2.503906 10.382812 2.503906 10.355469 2.503906 C 10.304688 2.503906 10.257812 2.5 10.207031 2.484375 C 10.183594 2.4375 10.183594 2.4375 10.171875 2.394531 Z M 10.171875 2.394531 "/>
<path style=" stroke:none;fill-rule:nonzero;fill:rgb(96.862745%,90.980393%,30.19608%);fill-opacity:1;" d="M 6.839844 2.246094 C 6.878906 2.28125 6.890625 2.304688 6.90625 2.355469 C 6.910156 2.367188 6.917969 2.378906 6.921875 2.394531 C 6.929688 2.429688 6.929688 2.429688 6.929688 2.484375 C 6.878906 2.464844 6.878906 2.464844 6.855469 2.425781 C 6.851562 2.40625 6.84375 2.390625 6.839844 2.375 C 6.832031 2.355469 6.824219 2.339844 6.820312 2.320312 C 6.816406 2.308594 6.8125 2.296875 6.804688 2.28125 C 6.816406 2.269531 6.828125 2.257812 6.839844 2.246094 Z M 6.839844 2.246094 "/>
<path style=" stroke:none;fill-rule:nonzero;fill:rgb(96.470588%,91.37255%,35.294119%);fill-opacity:1;" d="M 11.195312 2.007812 C 11.207031 2.03125 11.21875 2.054688 11.230469 2.078125 C 11.175781 2.140625 11.125 2.203125 11.070312 2.265625 C 11.0625 2.238281 11.058594 2.214844 11.050781 2.191406 C 11.0625 2.191406 11.074219 2.191406 11.085938 2.191406 C 11.085938 2.179688 11.085938 2.164062 11.085938 2.152344 C 11.097656 2.152344 11.109375 2.152344 11.121094 2.152344 C 11.121094 2.140625 11.121094 2.128906 11.121094 2.117188 C 11.132812 2.117188 11.144531 2.117188 11.160156 2.117188 C 11.160156 2.105469 11.160156 2.09375 11.160156 2.078125 C 11.171875 2.078125 11.183594 2.078125 11.195312 2.078125 C 11.1875 2.0625 11.183594 2.042969 11.175781 2.023438 C 11.183594 2.019531 11.1875 2.011719 11.195312 2.007812 Z M 11.195312 2.007812 "/>
<path style=" stroke:none;fill-rule:nonzero;fill:rgb(98.823529%,89.019608%,10.196079%);fill-opacity:1;" d="M 4.386719 0.480469 C 4.484375 0.480469 4.578125 0.480469 4.675781 0.480469 C 4.667969 0.503906 4.664062 0.527344 4.65625 0.550781 C 4.632812 0.550781 4.609375 0.550781 4.585938 0.550781 C 4.585938 0.539062 4.585938 0.527344 4.585938 0.515625 C 4.519531 0.507812 4.453125 0.503906 4.386719 0.496094 C 4.386719 0.492188 4.386719 0.484375 4.386719 0.480469 Z M 4.386719 0.480469 "/>
<path style=" stroke:none;fill-rule:nonzero;fill:rgb(97.254902%,81.568629%,27.450982%);fill-opacity:1;" d="M 10.066406 0.828125 C 10.09375 0.835938 10.125 0.839844 10.15625 0.847656 C 10.171875 0.902344 10.175781 0.917969 10.15625 0.976562 C 10.089844 0.996094 10.089844 0.996094 10.03125 1.011719 C 10.035156 0.992188 10.042969 0.976562 10.046875 0.957031 C 10.058594 0.949219 10.070312 0.945312 10.082031 0.9375 C 10.097656 0.910156 10.109375 0.878906 10.121094 0.847656 C 10.101562 0.839844 10.082031 0.835938 10.066406 0.828125 Z M 10.066406 0.828125 "/>
<path style=" stroke:none;fill-rule:nonzero;fill:rgb(94.509804%,72.156864%,32.941177%);fill-opacity:1;" d="M 9.492188 2.484375 C 9.535156 2.492188 9.535156 2.492188 9.582031 2.503906 C 9.589844 2.515625 9.59375 2.527344 9.601562 2.539062 C 9.613281 2.546875 9.628906 2.550781 9.644531 2.554688 C 9.691406 2.578125 9.691406 2.578125 9.703125 2.617188 C 9.707031 2.628906 9.707031 2.636719 9.707031 2.648438 C 9.621094 2.621094 9.558594 2.570312 9.492188 2.503906 C 9.492188 2.496094 9.492188 2.492188 9.492188 2.484375 Z M 9.492188 2.484375 "/>
<path style=" stroke:none;fill-rule:nonzero;fill:rgb(94.901961%,81.176472%,35.294119%);fill-opacity:1;" d="M 3.332031 2.410156 C 3.34375 2.417969 3.355469 2.421875 3.367188 2.429688 C 3.367188 2.441406 3.367188 2.453125 3.367188 2.464844 C 3.386719 2.464844 3.402344 2.464844 3.421875 2.464844 C 3.421875 2.453125 3.421875 2.441406 3.421875 2.429688 C 3.4375 2.429688 3.457031 2.429688 3.476562 2.429688 C 3.457031 2.5 3.457031 2.5 3.4375 2.519531 C 3.410156 2.523438 3.378906 2.523438 3.347656 2.519531 C 3.332031 2.488281 3.332031 2.488281 3.3125 2.449219 C 3.320312 2.4375 3.324219 2.421875 3.332031 2.410156 Z M 3.332031 2.410156 "/>
<path style=" stroke:none;fill-rule:nonzero;fill:rgb(95.686275%,77.64706%,29.803923%);fill-opacity:1;" d="M 2.183594 0.976562 C 2.207031 0.992188 2.226562 1.007812 2.246094 1.027344 C 2.257812 1.035156 2.269531 1.042969 2.28125 1.054688 C 2.308594 1.085938 2.308594 1.085938 2.328125 1.160156 C 2.28125 1.140625 2.234375 1.125 2.183594 1.105469 C 2.191406 1.078125 2.195312 1.054688 2.203125 1.03125 C 2.195312 1.011719 2.191406 0.996094 2.183594 0.976562 Z M 2.183594 0.976562 "/>
<path style=" stroke:none;fill-rule:nonzero;fill:rgb(96.470588%,92.941177%,30.588236%);fill-opacity:1;" d="M 11.445312 0.441406 C 11.457031 0.453125 11.46875 0.464844 11.480469 0.480469 C 11.46875 0.511719 11.46875 0.511719 11.445312 0.550781 C 11.390625 0.574219 11.390625 0.574219 11.335938 0.589844 C 11.332031 0.558594 11.324219 0.527344 11.320312 0.496094 C 11.335938 0.503906 11.355469 0.507812 11.375 0.515625 C 11.398438 0.492188 11.421875 0.464844 11.445312 0.441406 Z M 11.445312 0.441406 "/>
<path style=" stroke:none;fill-rule:nonzero;fill:rgb(97.254902%,87.058824%,21.176471%);fill-opacity:1;" d="M 10.65625 1.492188 C 10.6875 1.519531 10.6875 1.519531 10.710938 1.546875 C 10.683594 1.550781 10.652344 1.554688 10.625 1.558594 C 10.601562 1.5625 10.601562 1.5625 10.574219 1.566406 C 10.53125 1.5625 10.53125 1.5625 10.5 1.539062 C 10.492188 1.527344 10.484375 1.519531 10.476562 1.507812 C 10.539062 1.488281 10.59375 1.484375 10.65625 1.492188 Z M 10.65625 1.492188 "/>
<path style=" stroke:none;fill-rule:nonzero;fill:rgb(96.078432%,80.784315%,31.764707%);fill-opacity:1;" d="M 10.460938 1.378906 C 10.484375 1.390625 10.507812 1.402344 10.53125 1.414062 C 10.542969 1.421875 10.554688 1.425781 10.570312 1.433594 C 10.601562 1.453125 10.601562 1.453125 10.621094 1.492188 C 10.578125 1.496094 10.539062 1.503906 10.496094 1.507812 C 10.496094 1.492188 10.496094 1.472656 10.496094 1.453125 C 10.484375 1.453125 10.472656 1.453125 10.460938 1.453125 C 10.460938 1.429688 10.460938 1.40625 10.460938 1.378906 Z M 10.460938 1.378906 "/>
<path style=" stroke:none;fill-rule:nonzero;fill:rgb(95.686275%,68.235296%,30.980393%);fill-opacity:1;" d="M 0.429688 1.121094 C 0.441406 1.136719 0.453125 1.148438 0.464844 1.160156 C 0.441406 1.183594 0.417969 1.207031 0.394531 1.234375 C 0.40625 1.234375 0.417969 1.234375 0.429688 1.234375 C 0.421875 1.304688 0.390625 1.332031 0.339844 1.378906 C 0.355469 1.222656 0.355469 1.222656 0.394531 1.160156 C 0.40625 1.160156 0.417969 1.160156 0.429688 1.160156 C 0.429688 1.148438 0.429688 1.136719 0.429688 1.121094 Z M 0.429688 1.121094 "/>
<path style=" stroke:none;fill-rule:nonzero;fill:rgb(96.470588%,71.372551%,30.980393%);fill-opacity:1;" d="M 9.332031 0.71875 C 9.347656 0.71875 9.367188 0.71875 9.386719 0.71875 C 9.378906 0.769531 9.378906 0.769531 9.367188 0.828125 C 9.347656 0.839844 9.332031 0.851562 9.3125 0.863281 C 9.296875 0.851562 9.277344 0.839844 9.257812 0.828125 C 9.292969 0.773438 9.292969 0.773438 9.332031 0.71875 Z M 9.332031 0.71875 "/>
<path style=" stroke:none;fill-rule:nonzero;fill:rgb(97.254902%,85.490197%,29.019609%);fill-opacity:1;" d="M 5.046875 2.261719 C 5.085938 2.261719 5.121094 2.261719 5.160156 2.265625 C 5.160156 2.277344 5.160156 2.289062 5.160156 2.300781 C 5.128906 2.308594 5.097656 2.3125 5.070312 2.320312 C 5.058594 2.355469 5.046875 2.390625 5.03125 2.429688 C 5.027344 2.429688 5.019531 2.429688 5.015625 2.429688 C 5 2.316406 5 2.316406 4.996094 2.28125 C 5.015625 2.265625 5.015625 2.265625 5.046875 2.261719 Z M 5.046875 2.261719 "/>
<path style=" stroke:none;fill-rule:nonzero;fill:rgb(96.078432%,89.019608%,29.803923%);fill-opacity:1;" d="M 11.140625 1.546875 C 11.152344 1.546875 11.164062 1.546875 11.175781 1.546875 C 11.175781 1.601562 11.175781 1.65625 11.175781 1.710938 C 11.128906 1.664062 11.082031 1.613281 11.03125 1.5625 C 11.085938 1.574219 11.085938 1.574219 11.140625 1.582031 C 11.140625 1.570312 11.140625 1.558594 11.140625 1.546875 Z M 11.140625 1.546875 "/>
<path style=" stroke:none;fill-rule:nonzero;fill:rgb(94.117647%,77.64706%,31.37255%);fill-opacity:1;" d="M 1.773438 1.234375 C 1.761719 1.234375 1.75 1.234375 1.738281 1.238281 C 1.699219 1.25 1.699219 1.25 1.679688 1.289062 C 1.660156 1.367188 1.652344 1.445312 1.648438 1.527344 C 1.640625 1.527344 1.636719 1.527344 1.628906 1.527344 C 1.628906 1.4375 1.628906 1.34375 1.628906 1.25 C 1.71875 1.214844 1.71875 1.214844 1.773438 1.234375 Z M 1.773438 1.234375 "/>
<path style=" stroke:none;fill-rule:nonzero;fill:rgb(96.078432%,83.92157%,24.313726%);fill-opacity:1;" d="M 4.226562 2.300781 C 4.238281 2.300781 4.25 2.300781 4.261719 2.300781 C 4.261719 2.316406 4.261719 2.328125 4.261719 2.34375 C 4.257812 2.394531 4.257812 2.394531 4.296875 2.429688 C 4.28125 2.449219 4.28125 2.449219 4.226562 2.449219 C 4.207031 2.449219 4.191406 2.449219 4.171875 2.449219 C 4.191406 2.398438 4.207031 2.351562 4.226562 2.300781 Z M 4.226562 2.300781 "/>
<path style=" stroke:none;fill-rule:nonzero;fill:rgb(95.294118%,74.117649%,33.333334%);fill-opacity:1;" d="M 1.558594 2.265625 C 1.570312 2.265625 1.582031 2.265625 1.59375 2.265625 C 1.59375 2.347656 1.59375 2.433594 1.59375 2.519531 C 1.582031 2.519531 1.570312 2.519531 1.558594 2.519531 C 1.558594 2.4375 1.558594 2.351562 1.558594 2.265625 Z M 1.558594 2.265625 "/>
<path style=" stroke:none;fill-rule:nonzero;fill:rgb(96.078432%,90.196079%,32.941177%);fill-opacity:1;" d="M 7.539062 1.65625 C 7.570312 1.65625 7.597656 1.65625 7.628906 1.65625 C 7.628906 1.671875 7.628906 1.691406 7.628906 1.707031 C 7.628906 1.765625 7.636719 1.792969 7.664062 1.839844 C 7.589844 1.789062 7.5625 1.746094 7.539062 1.65625 Z M 7.539062 1.65625 "/>
<path style=" stroke:none;fill-rule:nonzero;fill:rgb(98.039216%,91.37255%,28.627452%);fill-opacity:1;" d="M 10.261719 1.34375 C 10.273438 1.351562 10.285156 1.355469 10.296875 1.363281 C 10.296875 1.421875 10.296875 1.484375 10.296875 1.546875 C 10.28125 1.539062 10.261719 1.535156 10.246094 1.527344 C 10.238281 1.472656 10.234375 1.417969 10.226562 1.363281 C 10.238281 1.355469 10.25 1.351562 10.261719 1.34375 Z M 10.261719 1.34375 "/>
<path style=" stroke:none;fill-rule:nonzero;fill:rgb(96.470588%,74.509805%,30.588236%);fill-opacity:1;" d="M 2.023438 0.921875 C 2.078125 0.929688 2.078125 0.929688 2.132812 0.9375 C 2.136719 0.957031 2.144531 0.976562 2.148438 0.992188 C 2.121094 1.007812 2.089844 1.019531 2.058594 1.03125 C 2.023438 0.976562 2.023438 0.976562 2.023438 0.921875 Z M 2.023438 0.921875 "/>
<path style=" stroke:none;fill-rule:nonzero;fill:rgb(92.941177%,81.176472%,34.117648%);fill-opacity:1;" d="M 4.171875 2.449219 C 4.238281 2.449219 4.304688 2.449219 4.371094 2.449219 C 4.371094 2.472656 4.371094 2.496094 4.371094 2.519531 C 4.359375 2.519531 4.347656 2.519531 4.335938 2.519531 C 4.328125 2.507812 4.324219 2.496094 4.316406 2.484375 C 4.261719 2.472656 4.261719 2.472656 4.207031 2.464844 C 4.203125 2.484375 4.195312 2.503906 4.191406 2.519531 C 4.179688 2.519531 4.167969 2.519531 4.15625 2.519531 C 4.160156 2.496094 4.167969 2.472656 4.171875 2.449219 Z M 4.171875 2.449219 "/>
<path style=" stroke:none;fill-rule:nonzero;fill:rgb(94.901961%,76.862746%,33.333334%);fill-opacity:1;" d="M 2.328125 2.265625 C 2.375 2.265625 2.421875 2.265625 2.472656 2.265625 C 2.472656 2.277344 2.472656 2.289062 2.472656 2.300781 C 2.457031 2.300781 2.445312 2.304688 2.429688 2.304688 C 2.378906 2.3125 2.378906 2.3125 2.359375 2.355469 C 2.355469 2.367188 2.351562 2.378906 2.347656 2.394531 C 2.339844 2.394531 2.335938 2.394531 2.328125 2.394531 C 2.328125 2.351562 2.328125 2.308594 2.328125 2.265625 Z M 2.328125 2.265625 "/>
<path style=" stroke:none;fill-rule:nonzero;fill:rgb(96.078432%,90.980393%,31.37255%);fill-opacity:1;" d="M 11.640625 2.042969 C 11.621094 2.117188 11.59375 2.179688 11.550781 2.246094 C 11.53125 2.175781 11.53125 2.175781 11.550781 2.136719 C 11.5625 2.136719 11.574219 2.136719 11.589844 2.136719 C 11.582031 2.109375 11.578125 2.085938 11.570312 2.0625 C 11.605469 2.042969 11.605469 2.042969 11.640625 2.042969 Z M 11.640625 2.042969 "/>
<path style=" stroke:none;fill-rule:nonzero;fill:rgb(96.078432%,84.705883%,28.627452%);fill-opacity:1;" d="M 10.765625 1.75 C 10.777344 1.753906 10.789062 1.761719 10.800781 1.765625 C 10.816406 1.820312 10.816406 1.859375 10.816406 1.914062 C 10.824219 1.925781 10.828125 1.9375 10.835938 1.949219 C 10.800781 1.941406 10.800781 1.941406 10.765625 1.914062 C 10.75 1.863281 10.75 1.820312 10.746094 1.765625 C 10.753906 1.761719 10.757812 1.753906 10.765625 1.75 Z M 10.765625 1.75 "/>
<path style=" stroke:none;fill-rule:nonzero;fill:rgb(96.862745%,79.607844%,25.490198%);fill-opacity:1;" d="M 10.207031 0.164062 C 10.195312 0.175781 10.179688 0.1875 10.167969 0.199219 C 10.121094 0.238281 10.121094 0.238281 10.082031 0.277344 C 10.066406 0.265625 10.046875 0.25 10.03125 0.238281 C 10.035156 0.222656 10.042969 0.203125 10.046875 0.183594 C 10.105469 0.164062 10.148438 0.164062 10.207031 0.164062 Z M 10.207031 0.164062 "/>
<path style=" stroke:none;fill-rule:nonzero;fill:rgb(95.686275%,87.843138%,36.078432%);fill-opacity:1;" d="M 6.464844 1.050781 C 6.542969 1.121094 6.570312 1.167969 6.589844 1.269531 C 6.558594 1.257812 6.558594 1.257812 6.519531 1.234375 C 6.5 1.167969 6.5 1.167969 6.484375 1.105469 C 6.476562 1.085938 6.472656 1.066406 6.464844 1.050781 Z M 6.464844 1.050781 "/>
<path style=" stroke:none;fill-rule:nonzero;fill:rgb(97.254902%,91.764706%,35.294119%);fill-opacity:1;" d="M 11.660156 1.03125 C 11.703125 1.078125 11.714844 1.113281 11.730469 1.179688 C 11.726562 1.222656 11.726562 1.222656 11.714844 1.25 C 11.660156 1.175781 11.65625 1.125 11.660156 1.03125 Z M 11.660156 1.03125 "/>
<path style=" stroke:none;fill-rule:nonzero;fill:rgb(98.431373%,84.705883%,17.647059%);fill-opacity:1;" d="M 10.398438 0.992188 C 10.417969 0.992188 10.417969 0.992188 10.441406 0.992188 C 10.4375 1.03125 10.429688 1.066406 10.425781 1.105469 C 10.398438 1.105469 10.375 1.105469 10.351562 1.105469 C 10.34375 1.074219 10.339844 1.042969 10.335938 1.011719 C 10.351562 0.992188 10.351562 0.992188 10.398438 0.992188 Z M 10.398438 0.992188 "/>
<path style=" stroke:none;fill-rule:nonzero;fill:rgb(96.470588%,86.666667%,29.803923%);fill-opacity:1;" d="M 10.765625 0.3125 C 10.816406 0.320312 10.816406 0.320312 10.871094 0.332031 C 10.871094 0.347656 10.871094 0.367188 10.871094 0.386719 C 10.890625 0.386719 10.90625 0.386719 10.925781 0.386719 C 10.925781 0.398438 10.925781 0.410156 10.925781 0.421875 C 10.867188 0.40625 10.808594 0.386719 10.746094 0.367188 C 10.753906 0.351562 10.757812 0.332031 10.765625 0.3125 Z M 10.765625 0.3125 "/>
<path style=" stroke:none;fill-rule:nonzero;fill:rgb(95.686275%,91.764706%,31.764707%);fill-opacity:1;" d="M 11.320312 1.75 C 11.332031 1.75 11.34375 1.75 11.355469 1.75 C 11.351562 1.773438 11.347656 1.800781 11.339844 1.828125 C 11.339844 1.84375 11.335938 1.855469 11.332031 1.871094 C 11.316406 1.917969 11.300781 1.9375 11.265625 1.96875 C 11.265625 1.945312 11.265625 1.921875 11.265625 1.894531 C 11.277344 1.894531 11.289062 1.894531 11.300781 1.894531 C 11.300781 1.878906 11.300781 1.859375 11.300781 1.84375 C 11.300781 1.785156 11.300781 1.785156 11.320312 1.75 Z M 11.320312 1.75 "/>
<path style=" stroke:none;fill-rule:nonzero;fill:rgb(97.254902%,83.137256%,28.235295%);fill-opacity:1;" d="M 5.335938 1.140625 C 5.367188 1.171875 5.367188 1.171875 5.390625 1.214844 C 5.386719 1.265625 5.386719 1.265625 5.375 1.308594 C 5.355469 1.3125 5.335938 1.320312 5.320312 1.324219 C 5.320312 1.25 5.320312 1.25 5.335938 1.214844 C 5.335938 1.191406 5.335938 1.167969 5.335938 1.140625 Z M 5.335938 1.140625 "/>
<path style=" stroke:none;fill-rule:nonzero;fill:rgb(97.647059%,93.725491%,39.215687%);fill-opacity:1;" d="M 7.308594 2.320312 C 7.351562 2.34375 7.351562 2.34375 7.398438 2.375 C 7.398438 2.390625 7.398438 2.410156 7.398438 2.429688 C 7.375 2.429688 7.351562 2.429688 7.324219 2.429688 C 7.320312 2.441406 7.3125 2.453125 7.308594 2.464844 C 7.308594 2.417969 7.308594 2.367188 7.308594 2.320312 Z M 7.308594 2.320312 "/>
<path style=" stroke:none;fill-rule:nonzero;fill:rgb(98.039216%,87.843138%,23.137255%);fill-opacity:1;" d="M 11.355469 2.246094 C 11.371094 2.25 11.390625 2.257812 11.410156 2.265625 C 11.402344 2.300781 11.402344 2.300781 11.390625 2.335938 C 11.375 2.347656 11.375 2.347656 11.355469 2.355469 C 11.355469 2.34375 11.355469 2.332031 11.355469 2.320312 C 11.335938 2.320312 11.320312 2.320312 11.300781 2.320312 C 11.308594 2.300781 11.3125 2.28125 11.320312 2.265625 C 11.332031 2.257812 11.34375 2.25 11.355469 2.246094 Z M 11.355469 2.246094 "/>
<path style=" stroke:none;fill-rule:nonzero;fill:rgb(97.647059%,75.294119%,27.058825%);fill-opacity:1;" d="M 9.761719 1.710938 C 9.773438 1.722656 9.785156 1.734375 9.796875 1.75 C 9.796875 1.796875 9.785156 1.847656 9.777344 1.894531 C 9.742188 1.859375 9.742188 1.859375 9.738281 1.792969 C 9.742188 1.730469 9.742188 1.730469 9.761719 1.710938 Z M 9.761719 1.710938 "/>
<path style=" stroke:none;fill-rule:nonzero;fill:rgb(96.078432%,83.137256%,20%);fill-opacity:1;" d="M 2.042969 1.25 C 2.066406 1.257812 2.089844 1.265625 2.113281 1.269531 C 2.109375 1.34375 2.101562 1.414062 2.09375 1.492188 C 2.089844 1.492188 2.082031 1.492188 2.078125 1.492188 C 2.066406 1.410156 2.054688 1.332031 2.042969 1.25 Z M 2.042969 1.25 "/>
<path style=" stroke:none;fill-rule:nonzero;fill:rgb(95.686275%,77.64706%,32.941177%);fill-opacity:1;" d="M 2.6875 1.105469 C 2.691406 1.105469 2.699219 1.105469 2.703125 1.105469 C 2.710938 1.140625 2.714844 1.175781 2.722656 1.214844 C 2.703125 1.222656 2.6875 1.226562 2.667969 1.234375 C 2.640625 1.261719 2.640625 1.261719 2.613281 1.289062 C 2.625 1.261719 2.632812 1.234375 2.640625 1.207031 C 2.644531 1.191406 2.648438 1.175781 2.65625 1.160156 C 2.667969 1.121094 2.667969 1.121094 2.6875 1.105469 Z M 2.6875 1.105469 "/>
<path style=" stroke:none;fill-rule:nonzero;fill:rgb(96.862745%,91.764706%,35.294119%);fill-opacity:1;" d="M 11.175781 0.882812 C 11.246094 0.96875 11.246094 0.96875 11.246094 1.03125 C 11.210938 1.050781 11.210938 1.050781 11.175781 1.066406 C 11.175781 1.042969 11.175781 1.019531 11.175781 0.992188 C 11.1875 0.992188 11.199219 0.992188 11.210938 0.992188 C 11.210938 0.980469 11.210938 0.96875 11.210938 0.957031 C 11.199219 0.957031 11.1875 0.957031 11.175781 0.957031 C 11.175781 0.933594 11.175781 0.910156 11.175781 0.882812 Z M 11.175781 0.882812 "/>
<path style=" stroke:none;fill-rule:nonzero;fill:rgb(96.078432%,76.078433%,21.568628%);fill-opacity:1;" d="M 1.703125 0.902344 C 1.707031 0.914062 1.714844 0.925781 1.71875 0.9375 C 1.753906 0.9375 1.789062 0.9375 1.828125 0.9375 C 1.808594 0.949219 1.808594 0.949219 1.792969 0.957031 C 1.792969 0.96875 1.792969 0.980469 1.792969 0.992188 C 1.765625 0.992188 1.742188 0.992188 1.71875 0.992188 C 1.71875 0.980469 1.71875 0.96875 1.71875 0.957031 C 1.695312 0.957031 1.671875 0.957031 1.648438 0.957031 C 1.648438 0.945312 1.648438 0.933594 1.648438 0.921875 C 1.664062 0.914062 1.683594 0.90625 1.703125 0.902344 Z M 1.703125 0.902344 "/>
<path style=" stroke:none;fill-rule:nonzero;fill:rgb(96.470588%,81.176472%,26.274511%);fill-opacity:1;" d="M 10.316406 0.699219 C 10.324219 0.710938 10.328125 0.722656 10.335938 0.734375 C 10.363281 0.75 10.394531 0.761719 10.425781 0.773438 C 10.425781 0.777344 10.425781 0.785156 10.425781 0.792969 C 10.34375 0.785156 10.289062 0.777344 10.226562 0.71875 C 10.257812 0.710938 10.285156 0.707031 10.316406 0.699219 Z M 10.316406 0.699219 "/>
<path style=" stroke:none;fill-rule:nonzero;fill:rgb(95.294118%,75.686276%,31.37255%);fill-opacity:1;" d="M 9.832031 2.28125 C 9.867188 2.28125 9.902344 2.28125 9.941406 2.28125 C 9.953125 2.304688 9.964844 2.332031 9.976562 2.355469 C 9.957031 2.363281 9.957031 2.363281 9.941406 2.375 C 9.902344 2.351562 9.867188 2.324219 9.832031 2.300781 C 9.832031 2.292969 9.832031 2.289062 9.832031 2.28125 Z M 9.832031 2.28125 "/>
<path style=" stroke:none;fill-rule:nonzero;fill:rgb(98.039216%,77.64706%,18.431373%);fill-opacity:1;" d="M 9.257812 1.582031 C 9.265625 1.582031 9.273438 1.582031 9.277344 1.582031 C 9.285156 1.644531 9.289062 1.703125 9.296875 1.765625 C 9.277344 1.765625 9.261719 1.765625 9.242188 1.765625 C 9.238281 1.625 9.238281 1.625 9.257812 1.582031 Z M 9.257812 1.582031 "/>
<path style=" stroke:none;fill-rule:nonzero;fill:rgb(97.254902%,79.607844%,30.980393%);fill-opacity:1;" d="M 10.101562 1.066406 C 10.144531 1.078125 10.183594 1.089844 10.226562 1.105469 C 10.226562 1.109375 10.226562 1.117188 10.226562 1.121094 C 10.207031 1.128906 10.1875 1.132812 10.167969 1.140625 C 10.105469 1.15625 10.105469 1.15625 10.066406 1.179688 C 10.078125 1.140625 10.089844 1.105469 10.101562 1.066406 Z M 10.101562 1.066406 "/>
<path style=" stroke:none;fill-rule:nonzero;fill:rgb(97.254902%,92.54902%,30.19608%);fill-opacity:1;" d="M 11.265625 1.03125 C 11.304688 1.078125 11.328125 1.117188 11.335938 1.179688 C 11.320312 1.183594 11.300781 1.191406 11.285156 1.195312 C 11.285156 1.183594 11.285156 1.171875 11.285156 1.160156 C 11.273438 1.152344 11.261719 1.148438 11.246094 1.140625 C 11.253906 1.128906 11.257812 1.117188 11.265625 1.105469 C 11.265625 1.078125 11.265625 1.054688 11.265625 1.03125 Z M 11.265625 1.03125 "/>
<path style=" stroke:none;fill-rule:nonzero;fill:rgb(94.901961%,75.686276%,27.843139%);fill-opacity:1;" d="M 2.777344 1.011719 C 2.777344 1.03125 2.777344 1.046875 2.777344 1.066406 C 2.769531 1.074219 2.765625 1.078125 2.757812 1.085938 C 2.777344 1.105469 2.792969 1.121094 2.8125 1.140625 C 2.757812 1.160156 2.757812 1.160156 2.703125 1.140625 C 2.714844 1.082031 2.730469 1.050781 2.777344 1.011719 Z M 2.777344 1.011719 "/>
<path style=" stroke:none;fill-rule:nonzero;fill:rgb(92.156863%,81.176472%,49.019608%);fill-opacity:1;" d="M 3.886719 2.265625 C 3.898438 2.269531 3.910156 2.277344 3.921875 2.28125 C 3.921875 2.359375 3.921875 2.441406 3.921875 2.519531 C 3.90625 2.519531 3.886719 2.519531 3.867188 2.519531 C 3.867188 2.507812 3.867188 2.496094 3.867188 2.484375 C 3.878906 2.484375 3.890625 2.484375 3.90625 2.484375 C 3.898438 2.410156 3.894531 2.339844 3.886719 2.265625 Z M 3.886719 2.265625 "/>
<path style=" stroke:none;fill-rule:nonzero;fill:rgb(94.117647%,80.784315%,35.294119%);fill-opacity:1;" d="M 3.347656 2.265625 C 3.378906 2.265625 3.410156 2.265625 3.4375 2.265625 C 3.449219 2.292969 3.460938 2.324219 3.476562 2.355469 C 3.457031 2.355469 3.4375 2.355469 3.421875 2.355469 C 3.421875 2.335938 3.421875 2.320312 3.421875 2.300781 C 3.398438 2.300781 3.375 2.300781 3.347656 2.300781 C 3.347656 2.289062 3.347656 2.277344 3.347656 2.265625 Z M 3.347656 2.265625 "/>
<path style=" stroke:none;fill-rule:nonzero;fill:rgb(95.686275%,88.235295%,26.666668%);fill-opacity:1;" d="M 6.484375 2.265625 C 6.5 2.269531 6.519531 2.277344 6.539062 2.28125 C 6.539062 2.304688 6.539062 2.332031 6.539062 2.355469 C 6.5 2.375 6.5 2.375 6.464844 2.394531 C 6.472656 2.351562 6.476562 2.308594 6.484375 2.265625 Z M 6.484375 2.265625 "/>
<path style=" stroke:none;fill-rule:nonzero;fill:rgb(95.294118%,77.64706%,24.313726%);fill-opacity:1;" d="M 9.3125 1.859375 C 9.34375 1.90625 9.351562 1.925781 9.34375 1.984375 C 9.339844 1.996094 9.335938 2.011719 9.332031 2.023438 C 9.3125 2.03125 9.296875 2.035156 9.277344 2.042969 C 9.277344 2.023438 9.277344 2.007812 9.277344 1.988281 C 9.289062 1.988281 9.300781 1.988281 9.3125 1.988281 C 9.308594 1.964844 9.308594 1.964844 9.304688 1.945312 C 9.296875 1.894531 9.296875 1.894531 9.3125 1.859375 Z M 9.3125 1.859375 "/>
<path style=" stroke:none;fill-rule:nonzero;fill:rgb(97.254902%,81.176472%,29.803923%);fill-opacity:1;" d="M 1.863281 2.429688 C 1.875 2.429688 1.886719 2.429688 1.898438 2.429688 C 1.933594 2.484375 1.933594 2.484375 1.933594 2.539062 C 1.898438 2.53125 1.898438 2.53125 1.863281 2.519531 C 1.855469 2.507812 1.851562 2.496094 1.84375 2.484375 C 1.851562 2.464844 1.855469 2.449219 1.863281 2.429688 Z M 1.863281 2.429688 "/>
<path style=" stroke:none;fill-rule:nonzero;fill:rgb(98.039216%,75.294119%,23.921569%);fill-opacity:1;" d="M 10.03125 1.804688 C 10.042969 1.804688 10.054688 1.804688 10.066406 1.804688 C 10.070312 1.835938 10.078125 1.863281 10.082031 1.894531 C 10.058594 1.902344 10.035156 1.90625 10.011719 1.914062 C 10.011719 1.882812 10.011719 1.851562 10.011719 1.820312 C 10.019531 1.816406 10.023438 1.808594 10.03125 1.804688 Z M 10.03125 1.804688 "/>
<path style=" stroke:none;fill-rule:nonzero;fill:rgb(96.470588%,71.372551%,19.607843%);fill-opacity:1;" d="M 9.636719 1.621094 C 9.640625 1.621094 9.648438 1.621094 9.652344 1.621094 C 9.660156 1.691406 9.664062 1.765625 9.671875 1.839844 C 9.660156 1.839844 9.648438 1.839844 9.636719 1.839844 C 9.617188 1.8125 9.617188 1.8125 9.601562 1.765625 C 9.609375 1.714844 9.621094 1.667969 9.636719 1.621094 Z M 9.636719 1.621094 "/>
<path style=" stroke:none;fill-rule:nonzero;fill:rgb(97.647059%,85.882354%,23.921569%);fill-opacity:1;" d="M 10.855469 1.675781 C 10.894531 1.675781 10.9375 1.675781 10.980469 1.675781 C 10.972656 1.691406 10.96875 1.710938 10.960938 1.730469 C 10.933594 1.730469 10.902344 1.730469 10.871094 1.730469 C 10.867188 1.710938 10.859375 1.695312 10.855469 1.675781 Z M 10.855469 1.675781 "/>
<path style=" stroke:none;fill-rule:nonzero;fill:rgb(95.294118%,70.980394%,26.666668%);fill-opacity:1;" d="M 10.351562 1.34375 C 10.398438 1.351562 10.398438 1.351562 10.441406 1.363281 C 10.4375 1.378906 10.429688 1.398438 10.425781 1.417969 C 10.40625 1.421875 10.386719 1.429688 10.371094 1.4375 C 10.363281 1.40625 10.359375 1.375 10.351562 1.34375 Z M 10.351562 1.34375 "/>
<path style=" stroke:none;fill-rule:nonzero;fill:rgb(95.294118%,82.352942%,23.137255%);fill-opacity:1;" d="M 10.460938 0.957031 C 10.5 0.960938 10.5 0.960938 10.53125 0.976562 C 10.527344 0.992188 10.519531 1.011719 10.511719 1.03125 C 10.472656 1.03125 10.429688 1.03125 10.386719 1.03125 C 10.417969 0.992188 10.417969 0.992188 10.460938 0.957031 Z M 10.460938 0.957031 "/>
<path style=" stroke:none;fill-rule:nonzero;fill:rgb(95.294118%,89.803922%,37.64706%);fill-opacity:1;" d="M 10.960938 0.441406 C 10.984375 0.441406 11.007812 0.441406 11.03125 0.441406 C 11.03125 0.453125 11.03125 0.464844 11.03125 0.480469 C 11.0625 0.480469 11.09375 0.480469 11.121094 0.480469 C 11.117188 0.503906 11.109375 0.527344 11.105469 0.550781 C 11.082031 0.539062 11.058594 0.523438 11.03125 0.507812 C 11.019531 0.5 11.007812 0.492188 10.992188 0.480469 C 10.980469 0.476562 10.972656 0.46875 10.960938 0.460938 C 10.960938 0.453125 10.960938 0.449219 10.960938 0.441406 Z M 10.960938 0.441406 "/>
<path style=" stroke:none;fill-rule:nonzero;fill:rgb(98.039216%,90.980393%,25.098041%);fill-opacity:1;" d="M 6.070312 2.355469 C 6.09375 2.367188 6.117188 2.378906 6.144531 2.394531 C 6.144531 2.417969 6.144531 2.441406 6.144531 2.464844 C 6.132812 2.464844 6.121094 2.464844 6.109375 2.464844 C 6.109375 2.453125 6.109375 2.441406 6.109375 2.429688 C 6.082031 2.417969 6.058594 2.40625 6.035156 2.394531 C 6.046875 2.394531 6.058594 2.394531 6.070312 2.394531 C 6.070312 2.378906 6.070312 2.367188 6.070312 2.355469 Z M 6.070312 2.355469 "/>
<path style=" stroke:none;fill-rule:nonzero;fill:rgb(98.823529%,72.156864%,25.098041%);fill-opacity:1;" d="M 9.796875 2.171875 C 9.855469 2.195312 9.867188 2.207031 9.90625 2.265625 C 9.878906 2.269531 9.855469 2.277344 9.832031 2.28125 C 9.820312 2.246094 9.808594 2.210938 9.796875 2.171875 Z M 9.796875 2.171875 "/>
<path style=" stroke:none;fill-rule:nonzero;fill:rgb(96.078432%,78.823531%,21.960784%);fill-opacity:1;" d="M 1.953125 1.636719 C 1.964844 1.65625 1.976562 1.675781 1.988281 1.691406 C 1.976562 1.707031 1.964844 1.71875 1.953125 1.730469 C 1.945312 1.710938 1.941406 1.695312 1.933594 1.675781 C 1.898438 1.679688 1.863281 1.6875 1.828125 1.691406 C 1.832031 1.679688 1.839844 1.667969 1.84375 1.65625 C 1.898438 1.644531 1.898438 1.644531 1.953125 1.636719 Z M 1.953125 1.636719 "/>
<path style=" stroke:none;fill-rule:nonzero;fill:rgb(96.470588%,85.09804%,38.431373%);fill-opacity:1;" d="M 4.621094 2.335938 C 4.625 2.335938 4.632812 2.335938 4.640625 2.335938 C 4.652344 2.398438 4.664062 2.457031 4.675781 2.519531 C 4.65625 2.519531 4.640625 2.519531 4.621094 2.519531 C 4.621094 2.460938 4.621094 2.398438 4.621094 2.335938 Z M 4.621094 2.335938 "/>
<path style=" stroke:none;fill-rule:nonzero;fill:rgb(96.078432%,90.196079%,33.333334%);fill-opacity:1;" d="M 6.019531 2.28125 C 6.046875 2.289062 6.078125 2.292969 6.109375 2.300781 C 6.089844 2.308594 6.070312 2.3125 6.054688 2.320312 C 6.058594 2.34375 6.066406 2.367188 6.070312 2.394531 C 6.054688 2.394531 6.035156 2.394531 6.019531 2.394531 C 6 2.335938 6 2.335938 6.019531 2.28125 Z M 6.019531 2.28125 "/>
<path style=" stroke:none;fill-rule:nonzero;fill:rgb(95.294118%,92.941177%,38.82353%);fill-opacity:1;" d="M 11.625 0.9375 C 11.636719 0.945312 11.648438 0.949219 11.660156 0.957031 C 11.660156 0.976562 11.660156 0.992188 11.660156 1.011719 C 11.613281 1.011719 11.566406 1.011719 11.515625 1.011719 C 11.550781 0.984375 11.585938 0.960938 11.625 0.9375 Z M 11.625 0.9375 "/>
<path style=" stroke:none;fill-rule:nonzero;fill:rgb(95.686275%,79.215688%,35.686275%);fill-opacity:1;" d="M 10.03125 0.605469 C 10.023438 0.632812 10.019531 0.65625 10.011719 0.679688 C 9.96875 0.6875 9.929688 0.691406 9.886719 0.699219 C 9.972656 0.605469 9.972656 0.605469 10.03125 0.605469 Z M 10.03125 0.605469 "/>
<path style=" stroke:none;fill-rule:nonzero;fill:rgb(97.254902%,92.941177%,69.411767%);fill-opacity:1;" d="M 5.390625 2.464844 C 5.410156 2.472656 5.425781 2.476562 5.445312 2.484375 C 5.4375 2.503906 5.433594 2.519531 5.425781 2.539062 C 5.410156 2.535156 5.390625 2.527344 5.375 2.519531 C 5.378906 2.503906 5.386719 2.484375 5.390625 2.464844 Z M 5.390625 2.464844 "/>
<path style=" stroke:none;fill-rule:nonzero;fill:rgb(94.509804%,94.117647%,66.274512%);fill-opacity:1;" d="M 7.648438 2.464844 C 7.671875 2.472656 7.695312 2.476562 7.71875 2.484375 C 7.703125 2.503906 7.683594 2.519531 7.664062 2.539062 C 7.660156 2.515625 7.652344 2.492188 7.648438 2.464844 Z M 7.648438 2.464844 "/>
<path style=" stroke:none;fill-rule:nonzero;fill:rgb(93.725491%,85.09804%,50.588238%);fill-opacity:1;" d="M 2.703125 2.464844 C 2.714844 2.464844 2.726562 2.464844 2.742188 2.464844 C 2.742188 2.484375 2.742188 2.503906 2.742188 2.519531 C 2.722656 2.515625 2.703125 2.507812 2.6875 2.503906 C 2.691406 2.492188 2.699219 2.480469 2.703125 2.464844 Z M 2.703125 2.464844 "/>
</g>
</svg>
